<svg width="50" height="50" viewBox="0 0 50 50" fill="none" xmlns="http://www.w3.org/2000/svg">
<g clip-path="url(#clip0_45_11)">
<path d="M17.418 1.64451C12.4222 3.37759 8.11384 6.66703 5.12574 11.0297C2.13764 15.3923 0.627304 20.5982 0.816565 25.8827C1.00583 31.1671 2.88471 36.2516 6.17725 40.3893C9.46978 44.527 14.0024 47.4998 19.1094 48.8711C23.2497 49.9394 27.5875 49.9863 31.75 49.0078C35.5208 48.1608 39.0069 46.3491 41.8672 43.75C44.8441 40.9623 47.0048 37.4159 48.1172 33.4922C49.3262 29.2252 49.5414 24.738 48.7461 20.375H25.4961V30.0195H38.9609C38.6918 31.5577 38.1152 33.0259 37.2654 34.336C36.4157 35.6462 35.3104 36.7715 34.0156 37.6445C32.3714 38.7321 30.5179 39.4639 28.5742 39.7929C26.6248 40.1554 24.6252 40.1554 22.6758 39.7929C20.6999 39.3844 18.8308 38.569 17.1875 37.3984C14.5474 35.5296 12.5651 32.8747 11.5234 29.8125C10.4641 26.6929 10.4641 23.3109 11.5234 20.1914C12.2649 18.0047 13.4907 16.0138 15.1094 14.3672C16.9617 12.4482 19.3068 11.0765 21.8873 10.4026C24.4679 9.72871 27.1842 9.77861 29.7383 10.5469C31.7335 11.1593 33.558 12.2294 35.0664 13.6719C36.5846 12.1614 38.1003 10.6471 39.6133 9.12888C40.3945 8.31248 41.2461 7.53513 42.0156 6.6992C39.7131 4.55653 37.0105 2.88926 34.0625 1.79295C28.6941 -0.156312 22.8202 -0.208697 17.418 1.64451Z" fill="white"/>
<path d="M17.418 1.64451C22.8198 -0.20995 28.6937 -0.158945 34.0625 1.78905C37.011 2.89281 39.7124 4.5681 42.0117 6.71873C41.2305 7.55467 40.4062 8.33592 39.6094 9.14842C38.0937 10.6614 36.5794 12.1693 35.0664 13.6719C33.558 12.2294 31.7335 11.1593 29.7383 10.5469C27.1851 9.77592 24.4688 9.72314 21.8876 10.3943C19.3063 11.0654 16.9598 12.4346 15.1055 14.3515C13.4868 15.9982 12.261 17.9891 11.5195 20.1758L3.42188 13.9062C6.32034 8.15843 11.3389 3.7618 17.418 1.64451Z" fill="#E33629"/>
<path d="M1.27343 20.1172C1.70867 17.9601 2.43125 15.8712 3.42186 13.9062L11.5195 20.1914C10.4602 23.311 10.4602 26.6929 11.5195 29.8125C8.8216 31.8958 6.12238 33.9896 3.42186 36.0938C0.941984 31.1575 0.185663 25.5332 1.27343 20.1172Z" fill="#F8BD00"/>
<path d="M25.4961 20.3711H48.7461C49.5414 24.7341 49.3263 29.2214 48.1172 33.4883C47.0049 37.412 44.8441 40.9584 41.8672 43.7461C39.2539 41.707 36.6289 39.6836 34.0157 37.6445C35.3113 36.7706 36.4171 35.6441 37.2669 34.3325C38.1166 33.021 38.6928 31.5513 38.961 30.0117H25.4961C25.4922 26.8008 25.4961 23.5859 25.4961 20.3711Z" fill="#587DBD"/>
<path d="M3.41797 36.0938C6.11849 34.0104 8.81771 31.9167 11.5156 29.8125C12.5594 32.8758 14.5446 35.5308 17.1875 37.3984C18.836 38.5635 20.7091 39.3724 22.6875 39.7734C24.6369 40.1359 26.6365 40.1359 28.5859 39.7734C30.5297 39.4444 32.3831 38.7126 34.0273 37.625C36.6406 39.6641 39.2656 41.6875 41.8789 43.7266C39.0191 46.3271 35.5329 48.1402 31.7617 48.9883C27.5993 49.9668 23.2614 49.9199 19.1211 48.8516C15.8465 47.9772 12.7878 46.4359 10.1367 44.3242C7.33071 42.0964 5.03889 39.289 3.41797 36.0938Z" fill="#319F43"/>
</g>
<defs>
<clipPath id="clip0_45_11">
<rect width="50" height="50" fill="white"/>
</clipPath>
</defs>
</svg>
