<svg width="645" height="253" viewBox="0 0 645 253" fill="none" xmlns="http://www.w3.org/2000/svg">
<path d="M32.2271 7.29346L31.8081 9.45166H33.6045V10.2705H31.6558L31.1226 13H30.2529L30.7861 10.2705H28.8628L28.3423 13H27.479L27.9868 10.2705H26.3237V9.45166H28.1455L28.5771 7.29346H26.8188V6.4873H28.7168L29.2373 3.71973H30.1196L29.5991 6.4873H31.5352L32.0684 3.71973H32.9189L32.3857 6.4873H34.0615V7.29346H32.2271ZM29.0151 9.45166H30.9385L31.3574 7.29346H29.4341L29.0151 9.45166Z" fill="#96A5B8"/>
<path d="M89.5249 13H88.2935L83.2217 5.21143H83.1709C83.2386 6.12549 83.2725 6.96338 83.2725 7.7251V13H82.2759V3.71973H83.4946L88.5537 11.4766H88.6045C88.596 11.3623 88.577 10.9963 88.5474 10.3784C88.5177 9.75635 88.5072 9.31201 88.5156 9.04541V3.71973H89.5249V13ZM96.1963 13L95.9868 12.0098H95.936C95.589 12.4456 95.242 12.7419 94.895 12.8984C94.5522 13.0508 94.1227 13.127 93.6064 13.127C92.9167 13.127 92.375 12.9492 91.9814 12.5938C91.5921 12.2383 91.3975 11.7326 91.3975 11.0767C91.3975 9.67171 92.521 8.93538 94.7681 8.86768L95.9487 8.82959V8.39795C95.9487 7.85205 95.8302 7.45003 95.5933 7.19189C95.3605 6.92952 94.986 6.79834 94.4697 6.79834C93.89 6.79834 93.234 6.97607 92.502 7.33154L92.1782 6.52539C92.521 6.33919 92.8955 6.1932 93.3018 6.0874C93.7122 5.98161 94.1227 5.92871 94.5332 5.92871C95.3626 5.92871 95.9762 6.11279 96.374 6.48096C96.776 6.84912 96.9771 7.43945 96.9771 8.25195V13H96.1963ZM93.8159 12.2573C94.4718 12.2573 94.986 12.0775 95.3584 11.7178C95.735 11.3581 95.9233 10.8545 95.9233 10.207V9.57861L94.8696 9.62305C94.0317 9.65267 93.4266 9.78385 93.0542 10.0166C92.686 10.2451 92.502 10.6027 92.502 11.0894C92.502 11.4702 92.6162 11.7601 92.8447 11.959C93.0775 12.1579 93.4012 12.2573 93.8159 12.2573ZM108.022 13V8.47412C108.022 7.91976 107.903 7.50505 107.667 7.22998C107.43 6.95068 107.061 6.81104 106.562 6.81104C105.906 6.81104 105.422 6.99935 105.108 7.37598C104.795 7.7526 104.639 8.33236 104.639 9.11523V13H103.585V8.47412C103.585 7.91976 103.466 7.50505 103.229 7.22998C102.993 6.95068 102.622 6.81104 102.119 6.81104C101.458 6.81104 100.974 7.00993 100.665 7.40771C100.36 7.80127 100.208 8.44873 100.208 9.3501V13H99.1543V6.04297H100.011L100.183 6.99512H100.233C100.432 6.65658 100.712 6.39209 101.071 6.20166C101.435 6.01123 101.841 5.91602 102.29 5.91602C103.378 5.91602 104.089 6.30957 104.423 7.09668H104.474C104.681 6.73275 104.981 6.44499 105.375 6.2334C105.769 6.02181 106.217 5.91602 106.721 5.91602C107.508 5.91602 108.096 6.11914 108.485 6.52539C108.879 6.92741 109.076 7.57275 109.076 8.46143V13H108.022ZM114.192 13.127C113.164 13.127 112.351 12.8138 111.754 12.1875C111.162 11.5612 110.866 10.6916 110.866 9.57861C110.866 8.45719 111.141 7.56641 111.691 6.90625C112.245 6.24609 112.988 5.91602 113.919 5.91602C114.791 5.91602 115.48 6.20378 115.988 6.7793C116.496 7.35059 116.75 8.10596 116.75 9.04541V9.71191H111.958C111.979 10.5286 112.184 11.1486 112.573 11.5718C112.967 11.995 113.519 12.2065 114.23 12.2065C114.979 12.2065 115.72 12.05 116.452 11.7368V12.6763C116.079 12.8371 115.726 12.9513 115.392 13.019C115.062 13.091 114.662 13.127 114.192 13.127ZM113.906 6.79834C113.348 6.79834 112.901 6.98031 112.567 7.34424C112.237 7.70817 112.042 8.21175 111.983 8.85498H115.62C115.62 8.19059 115.472 7.68278 115.176 7.33154C114.88 6.97607 114.456 6.79834 113.906 6.79834Z" fill="#96A5B8"/>
<path d="M340.16 6.42383C340.16 7.36328 339.839 8.08691 339.195 8.59473C338.556 9.09831 337.64 9.3501 336.447 9.3501H335.355V13H334.276V3.71973H336.682C339.001 3.71973 340.16 4.62109 340.16 6.42383ZM335.355 8.42334H336.326C337.283 8.42334 337.974 8.26888 338.402 7.95996C338.829 7.65104 339.043 7.15592 339.043 6.47461C339.043 5.861 338.842 5.40397 338.44 5.10352C338.038 4.80306 337.412 4.65283 336.561 4.65283H335.355V8.42334ZM347.955 9.51514C347.955 10.6493 347.669 11.5358 347.098 12.1748C346.527 12.8096 345.738 13.127 344.73 13.127C344.108 13.127 343.556 12.981 343.074 12.689C342.591 12.397 342.219 11.978 341.957 11.4321C341.694 10.8862 341.563 10.2472 341.563 9.51514C341.563 8.38102 341.847 7.4987 342.414 6.86816C342.981 6.2334 343.768 5.91602 344.775 5.91602C345.748 5.91602 346.521 6.23975 347.092 6.88721C347.667 7.53467 347.955 8.41064 347.955 9.51514ZM342.655 9.51514C342.655 10.4038 342.833 11.0809 343.188 11.5464C343.543 12.0119 344.066 12.2446 344.756 12.2446C345.446 12.2446 345.968 12.014 346.324 11.5527C346.683 11.0872 346.863 10.408 346.863 9.51514C346.863 8.6307 346.683 7.95996 346.324 7.50293C345.968 7.04167 345.441 6.81104 344.743 6.81104C344.053 6.81104 343.533 7.03743 343.182 7.49023C342.83 7.94303 342.655 8.618 342.655 9.51514ZM353.046 13.127C352.593 13.127 352.178 13.0444 351.802 12.8794C351.429 12.7101 351.116 12.452 350.862 12.105H350.786C350.837 12.5112 350.862 12.8963 350.862 13.2603V16.123H349.809V6.04297H350.666L350.812 6.99512H350.862C351.133 6.61426 351.448 6.33919 351.808 6.16992C352.168 6.00065 352.58 5.91602 353.046 5.91602C353.968 5.91602 354.679 6.23128 355.179 6.86182C355.682 7.49235 355.934 8.37679 355.934 9.51514C355.934 10.6577 355.678 11.5464 355.166 12.1812C354.658 12.8117 353.951 13.127 353.046 13.127ZM352.894 6.81104C352.183 6.81104 351.668 7.00781 351.351 7.40137C351.034 7.79492 350.871 8.42122 350.862 9.28027V9.51514C350.862 10.4927 351.025 11.193 351.351 11.6162C351.677 12.0352 352.2 12.2446 352.919 12.2446C353.52 12.2446 353.99 12.0013 354.328 11.5146C354.671 11.028 354.842 10.3573 354.842 9.50244C354.842 8.63493 354.671 7.97054 354.328 7.50928C353.99 7.04378 353.511 6.81104 352.894 6.81104ZM358.771 6.04297V10.5562C358.771 11.1232 358.901 11.5464 359.159 11.8257C359.417 12.105 359.821 12.2446 360.371 12.2446C361.099 12.2446 361.63 12.0457 361.964 11.6479C362.303 11.2502 362.472 10.6006 362.472 9.69922V6.04297H363.526V13H362.656L362.504 12.0669H362.447C362.231 12.4097 361.931 12.672 361.545 12.854C361.165 13.036 360.729 13.127 360.238 13.127C359.391 13.127 358.757 12.9259 358.333 12.5239C357.915 12.1219 357.705 11.4787 357.705 10.5942V6.04297H358.771ZM366.82 13H365.767V3.12305H366.82V13ZM373.333 13L373.124 12.0098H373.073C372.726 12.4456 372.379 12.7419 372.032 12.8984C371.689 13.0508 371.259 13.127 370.743 13.127C370.053 13.127 369.512 12.9492 369.118 12.5938C368.729 12.2383 368.534 11.7326 368.534 11.0767C368.534 9.67171 369.658 8.93538 371.905 8.86768L373.085 8.82959V8.39795C373.085 7.85205 372.967 7.45003 372.73 7.19189C372.497 6.92952 372.123 6.79834 371.606 6.79834C371.027 6.79834 370.371 6.97607 369.639 7.33154L369.315 6.52539C369.658 6.33919 370.032 6.1932 370.438 6.0874C370.849 5.98161 371.259 5.92871 371.67 5.92871C372.499 5.92871 373.113 6.11279 373.511 6.48096C373.913 6.84912 374.114 7.43945 374.114 8.25195V13H373.333ZM370.953 12.2573C371.609 12.2573 372.123 12.0775 372.495 11.7178C372.872 11.3581 373.06 10.8545 373.06 10.207V9.57861L372.006 9.62305C371.168 9.65267 370.563 9.78385 370.191 10.0166C369.823 10.2451 369.639 10.6027 369.639 11.0894C369.639 11.4702 369.753 11.7601 369.981 11.959C370.214 12.1579 370.538 12.2573 370.953 12.2573ZM379.465 5.91602C379.774 5.91602 380.051 5.94141 380.296 5.99219L380.15 6.96973C379.863 6.90625 379.609 6.87451 379.389 6.87451C378.826 6.87451 378.343 7.10303 377.941 7.56006C377.544 8.01709 377.345 8.58626 377.345 9.26758V13H376.291V6.04297H377.161L377.281 7.33154H377.332C377.59 6.87874 377.901 6.52962 378.265 6.28418C378.629 6.03874 379.029 5.91602 379.465 5.91602ZM382.651 13H381.598V6.04297H382.651V13ZM381.509 4.15771C381.509 3.9165 381.568 3.74089 381.687 3.63086C381.805 3.5166 381.953 3.45947 382.131 3.45947C382.3 3.45947 382.446 3.5166 382.569 3.63086C382.692 3.74512 382.753 3.92074 382.753 4.15771C382.753 4.39469 382.692 4.57243 382.569 4.69092C382.446 4.80518 382.3 4.8623 382.131 4.8623C381.953 4.8623 381.805 4.80518 381.687 4.69092C381.568 4.57243 381.509 4.39469 381.509 4.15771ZM387.133 12.2573C387.319 12.2573 387.499 12.2446 387.672 12.2192C387.846 12.1896 387.983 12.16 388.085 12.1304V12.9365C387.971 12.9915 387.801 13.036 387.577 13.0698C387.357 13.1079 387.158 13.127 386.98 13.127C385.635 13.127 384.962 12.4181 384.962 11.0005V6.86182H383.965V6.354L384.962 5.91602L385.406 4.43066H386.016V6.04297H388.034V6.86182H386.016V10.9561C386.016 11.375 386.115 11.6966 386.314 11.9209C386.513 12.1452 386.786 12.2573 387.133 12.2573ZM388.377 6.04297H389.507L391.03 10.0103C391.365 10.9159 391.572 11.5697 391.652 11.9717H391.703C391.758 11.7559 391.872 11.3877 392.046 10.8672C392.224 10.3424 392.799 8.73438 393.772 6.04297H394.902L391.913 13.9648C391.616 14.7477 391.269 15.3021 390.872 15.6279C390.478 15.958 389.993 16.123 389.418 16.123C389.096 16.123 388.779 16.0871 388.466 16.0151V15.1709C388.699 15.2217 388.959 15.2471 389.247 15.2471C389.97 15.2471 390.486 14.8408 390.795 14.0283L391.183 13.0381L388.377 6.04297Z" fill="#96A5B8"/>
<path d="M565.513 10.5308C565.513 11.3475 565.216 11.9844 564.624 12.4414C564.032 12.8984 563.228 13.127 562.212 13.127C561.112 13.127 560.265 12.9852 559.673 12.7017V11.6606C560.054 11.8215 560.468 11.9484 560.917 12.0415C561.366 12.1346 561.81 12.1812 562.25 12.1812C562.969 12.1812 563.511 12.0457 563.875 11.7749C564.239 11.4998 564.421 11.119 564.421 10.6323C564.421 10.3107 564.355 10.0483 564.224 9.84521C564.097 9.63786 563.881 9.44743 563.577 9.27393C563.276 9.10042 562.817 8.90365 562.199 8.68359C561.336 8.37467 560.718 8.00863 560.346 7.58545C559.978 7.16227 559.793 6.61003 559.793 5.92871C559.793 5.21354 560.062 4.64437 560.6 4.22119C561.137 3.79801 561.848 3.58643 562.732 3.58643C563.655 3.58643 564.503 3.7557 565.278 4.09424L564.941 5.03369C564.175 4.71208 563.431 4.55127 562.707 4.55127C562.136 4.55127 561.689 4.67399 561.368 4.91943C561.046 5.16488 560.885 5.50553 560.885 5.94141C560.885 6.26302 560.944 6.52751 561.063 6.73486C561.181 6.93799 561.38 7.1263 561.66 7.2998C561.943 7.46908 562.375 7.65739 562.955 7.86475C563.928 8.21175 564.597 8.58415 564.96 8.98193C565.329 9.37972 565.513 9.896 565.513 10.5308ZM571.53 13L571.321 12.0098H571.27C570.923 12.4456 570.576 12.7419 570.229 12.8984C569.886 13.0508 569.457 13.127 568.94 13.127C568.251 13.127 567.709 12.9492 567.315 12.5938C566.926 12.2383 566.731 11.7326 566.731 11.0767C566.731 9.67171 567.855 8.93538 570.102 8.86768L571.283 8.82959V8.39795C571.283 7.85205 571.164 7.45003 570.927 7.19189C570.694 6.92952 570.32 6.79834 569.804 6.79834C569.224 6.79834 568.568 6.97607 567.836 7.33154L567.512 6.52539C567.855 6.33919 568.229 6.1932 568.636 6.0874C569.046 5.98161 569.457 5.92871 569.867 5.92871C570.697 5.92871 571.31 6.11279 571.708 6.48096C572.11 6.84912 572.311 7.43945 572.311 8.25195V13H571.53ZM569.15 12.2573C569.806 12.2573 570.32 12.0775 570.692 11.7178C571.069 11.3581 571.257 10.8545 571.257 10.207V9.57861L570.204 9.62305C569.366 9.65267 568.761 9.78385 568.388 10.0166C568.02 10.2451 567.836 10.6027 567.836 11.0894C567.836 11.4702 567.95 11.7601 568.179 11.959C568.411 12.1579 568.735 12.2573 569.15 12.2573ZM575.542 13H574.488V3.12305H575.542V13ZM580.715 13.127C579.687 13.127 578.875 12.8138 578.278 12.1875C577.685 11.5612 577.389 10.6916 577.389 9.57861C577.389 8.45719 577.664 7.56641 578.214 6.90625C578.769 6.24609 579.511 5.91602 580.442 5.91602C581.314 5.91602 582.004 6.20378 582.512 6.7793C583.02 7.35059 583.273 8.10596 583.273 9.04541V9.71191H578.481C578.502 10.5286 578.707 11.1486 579.097 11.5718C579.49 11.995 580.042 12.2065 580.753 12.2065C581.502 12.2065 582.243 12.05 582.975 11.7368V12.6763C582.603 12.8371 582.249 12.9513 581.915 13.019C581.585 13.091 581.185 13.127 580.715 13.127ZM580.43 6.79834C579.871 6.79834 579.425 6.98031 579.09 7.34424C578.76 7.70817 578.566 8.21175 578.506 8.85498H582.144C582.144 8.19059 581.995 7.68278 581.699 7.33154C581.403 6.97607 580.98 6.79834 580.43 6.79834ZM589.564 11.1021C589.564 11.7495 589.323 12.2489 588.84 12.6001C588.358 12.9513 587.681 13.127 586.809 13.127C585.887 13.127 585.167 12.981 584.651 12.689V11.7114C584.985 11.8807 585.343 12.014 585.724 12.1113C586.109 12.2087 586.479 12.2573 586.834 12.2573C587.385 12.2573 587.808 12.1706 588.104 11.9971C588.4 11.8193 588.548 11.5506 588.548 11.1909C588.548 10.9201 588.43 10.6895 588.193 10.499C587.96 10.3044 587.503 10.0758 586.822 9.81348C586.174 9.57227 585.713 9.36279 585.438 9.18506C585.167 9.00309 584.964 8.79785 584.829 8.56934C584.697 8.34082 584.632 8.06787 584.632 7.75049C584.632 7.18343 584.862 6.73698 585.324 6.41113C585.785 6.08105 586.418 5.91602 587.222 5.91602C587.971 5.91602 588.703 6.06836 589.418 6.37305L589.043 7.22998C588.345 6.94222 587.713 6.79834 587.146 6.79834C586.646 6.79834 586.27 6.87663 586.016 7.0332C585.762 7.18978 585.635 7.4056 585.635 7.68066C585.635 7.86686 585.681 8.02555 585.774 8.15674C585.872 8.28792 586.026 8.41276 586.238 8.53125C586.449 8.64974 586.856 8.82113 587.457 9.04541C588.282 9.34587 588.838 9.64844 589.126 9.95312C589.418 10.2578 589.564 10.6408 589.564 11.1021Z" fill="#96A5B8"/>
<rect y="27" width="645" height="1" fill="#EDF2F6"/>
<rect y="88" width="645" height="1" fill="#EDF2F6"/>
<g clip-path="url(#clip0_10314_14)">
<path d="M88.322 65H89.596V55.242H88.322V59.526H83.352V55.242H82.078V65H83.352V60.576H88.322V65ZM99.0377 61.15C99.0377 58.728 97.3437 57.202 95.1597 57.202C92.9897 57.202 91.2817 58.728 91.2817 61.15C91.2817 63.586 92.9337 65.126 95.1037 65.126C97.2877 65.126 99.0377 63.586 99.0377 61.15ZM92.5837 61.15C92.5837 59.218 93.8017 58.308 95.1457 58.308C96.4617 58.308 97.7357 59.218 97.7357 61.15C97.7357 63.096 96.4337 64.006 95.1037 64.006C93.7737 64.006 92.5837 63.096 92.5837 61.15ZM111.787 65H113.047V60.478C113.047 58.28 111.689 57.188 109.939 57.188C108.763 57.188 107.671 57.79 107.223 58.896C106.719 57.748 105.669 57.188 104.409 57.188C103.401 57.188 102.491 57.622 101.987 58.434V57.328H100.713V65H101.987V60.772C101.987 59.12 102.869 58.294 104.157 58.294C105.417 58.294 106.257 59.092 106.257 60.66V65H107.517V60.772C107.517 59.12 108.399 58.294 109.687 58.294C110.947 58.294 111.787 59.092 111.787 60.66V65ZM118.399 58.28C119.715 58.28 120.835 59.106 120.821 60.604H115.977C116.117 59.106 117.153 58.28 118.399 58.28ZM121.983 62.634H120.611C120.331 63.46 119.603 64.048 118.455 64.048C117.153 64.048 116.061 63.194 115.963 61.64H122.095C122.123 61.374 122.137 61.15 122.137 60.87C122.137 58.77 120.681 57.202 118.455 57.202C116.215 57.202 114.661 58.728 114.661 61.15C114.661 63.586 116.271 65.126 118.455 65.126C120.359 65.126 121.591 64.034 121.983 62.634ZM130.589 55.242H127.551V65H130.589C133.795 65 135.769 63.166 135.769 60.142C135.769 57.118 133.795 55.242 130.589 55.242ZM128.825 63.95V56.278H130.589C133.137 56.278 134.467 57.762 134.467 60.142C134.467 62.522 133.137 63.95 130.589 63.95H128.825ZM140.711 58.28C142.027 58.28 143.147 59.106 143.133 60.604H138.289C138.429 59.106 139.465 58.28 140.711 58.28ZM144.295 62.634H142.923C142.643 63.46 141.915 64.048 140.767 64.048C139.465 64.048 138.373 63.194 138.275 61.64H144.407C144.435 61.374 144.449 61.15 144.449 60.87C144.449 58.77 142.993 57.202 140.767 57.202C138.527 57.202 136.973 58.728 136.973 61.15C136.973 63.586 138.583 65.126 140.767 65.126C142.671 65.126 143.903 64.034 144.295 62.634ZM145.655 61.15C145.655 63.586 147.209 65.126 149.393 65.126C151.297 65.126 152.543 64.062 152.935 62.536H151.563C151.283 63.502 150.527 64.048 149.393 64.048C147.993 64.048 146.957 63.054 146.957 61.15C146.957 59.274 147.993 58.28 149.393 58.28C150.527 58.28 151.297 58.868 151.563 59.792H152.935C152.543 58.182 151.297 57.202 149.393 57.202C147.209 57.202 145.655 58.742 145.655 61.15ZM161.915 61.15C161.915 58.728 160.221 57.202 158.037 57.202C155.867 57.202 154.159 58.728 154.159 61.15C154.159 63.586 155.811 65.126 157.981 65.126C160.165 65.126 161.915 63.586 161.915 61.15ZM155.461 61.15C155.461 59.218 156.679 58.308 158.023 58.308C159.339 58.308 160.613 59.218 160.613 61.15C160.613 63.096 159.311 64.006 157.981 64.006C156.651 64.006 155.461 63.096 155.461 61.15ZM164.864 60.828C164.864 59.05 165.788 58.504 167.006 58.504H167.342V57.188C166.124 57.188 165.298 57.72 164.864 58.574V57.328H163.59V65H164.864V60.828ZM177.767 58.112C177.767 59.204 177.137 59.988 175.695 59.988H173.819V56.292H175.695C177.151 56.292 177.767 57.006 177.767 58.112ZM172.545 55.242V65H173.819V61.01H175.359L177.683 65H179.209L176.759 60.912C178.397 60.548 179.083 59.358 179.083 58.112C179.083 56.516 177.991 55.242 175.695 55.242H172.545ZM180.586 61.136C180.586 63.516 182.168 65.126 184.212 65.126C185.626 65.126 186.62 64.398 187.082 63.572V65H188.37V57.328H187.082V58.728C186.634 57.93 185.654 57.202 184.226 57.202C182.168 57.202 180.586 58.742 180.586 61.136ZM187.082 61.15C187.082 62.956 185.878 64.006 184.478 64.006C183.078 64.006 181.888 62.942 181.888 61.136C181.888 59.33 183.078 58.308 184.478 58.308C185.878 58.308 187.082 59.372 187.082 61.15ZM196.137 65H197.397V60.478C197.397 58.28 196.039 57.188 194.261 57.188C193.225 57.188 192.301 57.622 191.797 58.42V57.328H190.523V65H191.797V60.758C191.797 59.106 192.693 58.294 193.995 58.294C195.283 58.294 196.137 59.092 196.137 60.66V65ZM199.002 61.136C199.002 63.516 200.584 65.126 202.642 65.126C204.042 65.126 205.036 64.384 205.498 63.558V65.168C205.498 66.806 204.476 67.674 203.118 67.674C201.858 67.674 200.948 67.044 200.668 66.12H199.408C199.66 67.758 201.102 68.78 203.118 68.78C205.372 68.78 206.786 67.282 206.786 65.168V57.328H205.498V58.728C205.05 57.902 204.042 57.202 202.642 57.202C200.584 57.202 199.002 58.742 199.002 61.136ZM205.498 61.15C205.498 62.956 204.294 64.006 202.894 64.006C201.494 64.006 200.304 62.942 200.304 61.136C200.304 59.33 201.494 58.308 202.894 58.308C204.294 58.308 205.498 59.372 205.498 61.15ZM212.201 58.28C213.517 58.28 214.637 59.106 214.623 60.604H209.779C209.919 59.106 210.955 58.28 212.201 58.28ZM215.785 62.634H214.413C214.133 63.46 213.405 64.048 212.257 64.048C210.955 64.048 209.863 63.194 209.765 61.64H215.897C215.925 61.374 215.939 61.15 215.939 60.87C215.939 58.77 214.483 57.202 212.257 57.202C210.017 57.202 208.463 58.728 208.463 61.15C208.463 63.586 210.073 65.126 212.257 65.126C214.161 65.126 215.393 64.034 215.785 62.634Z" fill="#444A6D"/>
<path d="M26.868 59.834C26.868 62.774 27.596 65 30.396 65C33.182 65 33.91 62.774 33.91 59.834C33.91 56.936 33.182 54.724 30.396 54.724C27.596 54.724 26.868 56.936 26.868 59.834ZM32.65 59.834C32.65 62.018 32.384 63.838 30.396 63.838C28.394 63.838 28.128 62.018 28.128 59.834C28.128 57.734 28.394 55.886 30.396 55.886C32.384 55.886 32.65 57.734 32.65 59.834ZM36.667 65H37.955V54.878H35.323V56.04H36.667V65Z" fill="#444A6D"/>
<g clip-path="url(#clip1_10314_14)">
<rect x="559.5" y="46.5" width="49" height="23" rx="7.5" fill="#F0F9FF" stroke="#0095FF"/>
<path d="M578.382 60.8672H577.005V63H575.996V60.8672H571.482V59.9468L575.888 53.6689H577.005V59.9087H578.382V60.8672ZM575.996 59.9087V56.8237C575.996 56.2186 576.017 55.5352 576.059 54.7734H576.008C575.805 55.1797 575.615 55.5161 575.437 55.7827L572.536 59.9087H575.996ZM582.185 57.3315C583.162 57.3315 583.93 57.5749 584.489 58.0615C585.052 58.5439 585.333 59.2062 585.333 60.0483C585.333 61.009 585.026 61.7622 584.413 62.3081C583.803 62.854 582.961 63.127 581.886 63.127C580.841 63.127 580.043 62.9598 579.493 62.6255V61.6099C579.789 61.8003 580.158 61.9505 580.598 62.0605C581.038 62.1663 581.472 62.2192 581.899 62.2192C582.644 62.2192 583.221 62.0436 583.632 61.6924C584.047 61.3411 584.254 60.8333 584.254 60.1689C584.254 58.874 583.46 58.2266 581.874 58.2266C581.472 58.2266 580.934 58.2879 580.261 58.4106L579.715 58.0615L580.064 53.7197H584.679V54.6909H580.966L580.731 57.4775C581.218 57.3802 581.702 57.3315 582.185 57.3315ZM587.625 56.4873C587.625 57.2067 587.703 57.7463 587.859 58.106C588.016 58.4657 588.27 58.6455 588.621 58.6455C589.315 58.6455 589.662 57.9261 589.662 56.4873C589.662 55.057 589.315 54.3418 588.621 54.3418C588.27 54.3418 588.016 54.5195 587.859 54.875C587.703 55.2305 587.625 55.7679 587.625 56.4873ZM590.532 56.4873C590.532 57.4521 590.369 58.1821 590.043 58.6772C589.721 59.1681 589.247 59.4136 588.621 59.4136C588.029 59.4136 587.567 59.1618 587.237 58.6582C586.911 58.1546 586.749 57.431 586.749 56.4873C586.749 55.5267 586.905 54.8031 587.218 54.3164C587.536 53.8298 588.003 53.5864 588.621 53.5864C589.235 53.5864 589.707 53.8382 590.037 54.3418C590.367 54.8454 590.532 55.5605 590.532 56.4873ZM593.21 60.207C593.21 60.9307 593.289 61.4723 593.445 61.832C593.602 62.1875 593.858 62.3652 594.213 62.3652C594.569 62.3652 594.831 62.1896 595 61.8384C595.17 61.4829 595.254 60.9391 595.254 60.207C595.254 59.4834 595.17 58.9481 595 58.6011C594.831 58.2498 594.569 58.0742 594.213 58.0742C593.858 58.0742 593.602 58.2498 593.445 58.6011C593.289 58.9481 593.21 59.4834 593.21 60.207ZM596.124 60.207C596.124 61.1676 595.961 61.8955 595.635 62.3906C595.314 62.8815 594.84 63.127 594.213 63.127C593.612 63.127 593.149 62.8752 592.823 62.3716C592.502 61.868 592.341 61.1465 592.341 60.207C592.341 59.2464 592.497 58.5228 592.811 58.0361C593.128 57.5495 593.596 57.3062 594.213 57.3062C594.814 57.3062 595.282 57.5558 595.616 58.0552C595.955 58.5503 596.124 59.2676 596.124 60.207ZM594.486 53.7197L589.338 63H588.405L593.553 53.7197H594.486Z" fill="#0095FF"/>
</g>
<rect x="333" y="57" width="180" height="4" rx="2" fill="#CDE7FF"/>
<rect x="333" y="57" width="140" height="4" rx="2" fill="#0095FF"/>
</g>
<g clip-path="url(#clip2_10314_14)">
<path d="M85.116 116.242H82.078V126H85.116C88.322 126 90.296 124.166 90.296 121.142C90.296 118.118 88.322 116.242 85.116 116.242ZM83.352 124.95V117.278H85.116C87.664 117.278 88.994 118.762 88.994 121.142C88.994 123.522 87.664 124.95 85.116 124.95H83.352ZM91.9764 126H93.2504V118.328H91.9764V126ZM92.6344 117.082C93.0964 117.082 93.4744 116.704 93.4744 116.214C93.4744 115.724 93.0964 115.346 92.6344 115.346C92.1444 115.346 91.7664 115.724 91.7664 116.214C91.7664 116.704 92.1444 117.082 92.6344 117.082ZM100.938 123.914C100.882 121.17 96.4298 122.164 96.4298 120.344C96.4298 119.728 96.9898 119.28 97.9278 119.28C98.9498 119.28 99.5378 119.84 99.5938 120.61H100.868C100.784 119.112 99.6638 118.202 97.9698 118.202C96.2618 118.202 95.1558 119.168 95.1558 120.344C95.1558 123.2 99.6918 122.206 99.6918 123.914C99.6918 124.544 99.1318 125.048 98.1238 125.048C97.0458 125.048 96.3878 124.488 96.3178 123.746H95.0018C95.0858 125.146 96.3458 126.126 98.1378 126.126C99.8318 126.126 100.938 125.174 100.938 123.914ZM108.35 126H109.61V121.478C109.61 119.28 108.252 118.188 106.474 118.188C105.438 118.188 104.514 118.622 104.01 119.42V118.328H102.736V126H104.01V121.758C104.01 120.106 104.906 119.294 106.208 119.294C107.496 119.294 108.35 120.092 108.35 121.66V126ZM114.953 119.28C116.269 119.28 117.389 120.106 117.375 121.604H112.531C112.671 120.106 113.707 119.28 114.953 119.28ZM118.537 123.634H117.165C116.885 124.46 116.157 125.048 115.009 125.048C113.707 125.048 112.615 124.194 112.517 122.64H118.649C118.677 122.374 118.691 122.15 118.691 121.87C118.691 119.77 117.235 118.202 115.009 118.202C112.769 118.202 111.215 119.728 111.215 122.15C111.215 124.586 112.825 126.126 115.009 126.126C116.913 126.126 118.145 125.034 118.537 123.634ZM123.285 124.544L120.877 118.328H119.463L122.557 125.916L121.045 129.612H122.361L126.981 118.328H125.665L123.285 124.544ZM133.268 120.876V117.292H135.144C136.6 117.292 137.216 117.964 137.216 119.098C137.216 120.19 136.6 120.876 135.144 120.876H133.268ZM138.518 119.098C138.518 117.502 137.44 116.242 135.144 116.242H131.994V126H133.268V121.926H135.144C137.566 121.926 138.518 120.582 138.518 119.098ZM141.375 121.828C141.375 120.05 142.299 119.504 143.517 119.504H143.853V118.188C142.635 118.188 141.809 118.72 141.375 119.574V118.328H140.101V126H141.375V121.828ZM145.324 126H146.598V118.328H145.324V126ZM145.982 117.082C146.444 117.082 146.822 116.704 146.822 116.214C146.822 115.724 146.444 115.346 145.982 115.346C145.492 115.346 145.114 115.724 145.114 116.214C145.114 116.704 145.492 117.082 145.982 117.082ZM154.383 126H155.643V121.478C155.643 119.28 154.285 118.188 152.507 118.188C151.471 118.188 150.547 118.622 150.043 119.42V118.328H148.769V126H150.043V121.758C150.043 120.106 150.939 119.294 152.241 119.294C153.529 119.294 154.383 120.092 154.383 121.66V126ZM157.248 122.15C157.248 124.586 158.802 126.126 160.986 126.126C162.89 126.126 164.136 125.062 164.528 123.536H163.156C162.876 124.502 162.12 125.048 160.986 125.048C159.586 125.048 158.55 124.054 158.55 122.15C158.55 120.274 159.586 119.28 160.986 119.28C162.12 119.28 162.89 119.868 163.156 120.792H164.528C164.136 119.182 162.89 118.202 160.986 118.202C158.802 118.202 157.248 119.742 157.248 122.15ZM169.49 119.28C170.806 119.28 171.926 120.106 171.912 121.604H167.068C167.208 120.106 168.244 119.28 169.49 119.28ZM173.074 123.634H171.702C171.422 124.46 170.694 125.048 169.546 125.048C168.244 125.048 167.152 124.194 167.054 122.64H173.186C173.214 122.374 173.228 122.15 173.228 121.87C173.228 119.77 171.772 118.202 169.546 118.202C167.306 118.202 165.752 119.728 165.752 122.15C165.752 124.586 167.362 126.126 169.546 126.126C171.45 126.126 172.682 125.034 173.074 123.634ZM180.426 123.914C180.37 121.17 175.918 122.164 175.918 120.344C175.918 119.728 176.478 119.28 177.416 119.28C178.438 119.28 179.026 119.84 179.082 120.61H180.356C180.272 119.112 179.152 118.202 177.458 118.202C175.75 118.202 174.644 119.168 174.644 120.344C174.644 123.2 179.18 122.206 179.18 123.914C179.18 124.544 178.62 125.048 177.612 125.048C176.534 125.048 175.876 124.488 175.806 123.746H174.49C174.574 125.146 175.834 126.126 177.626 126.126C179.32 126.126 180.426 125.174 180.426 123.914ZM187.74 123.914C187.684 121.17 183.232 122.164 183.232 120.344C183.232 119.728 183.792 119.28 184.73 119.28C185.752 119.28 186.34 119.84 186.396 120.61H187.67C187.586 119.112 186.466 118.202 184.772 118.202C183.064 118.202 181.958 119.168 181.958 120.344C181.958 123.2 186.494 122.206 186.494 123.914C186.494 124.544 185.934 125.048 184.926 125.048C183.848 125.048 183.19 124.488 183.12 123.746H181.804C181.888 125.146 183.148 126.126 184.94 126.126C186.634 126.126 187.74 125.174 187.74 123.914ZM194.545 120.876V117.292H196.421C197.877 117.292 198.493 117.964 198.493 119.098C198.493 120.19 197.877 120.876 196.421 120.876H194.545ZM199.795 119.098C199.795 117.502 198.717 116.242 196.421 116.242H193.271V126H194.545V121.926H196.421C198.843 121.926 199.795 120.582 199.795 119.098ZM201.379 126H202.653V118.328H201.379V126ZM202.037 117.082C202.499 117.082 202.877 116.704 202.877 116.214C202.877 115.724 202.499 115.346 202.037 115.346C201.547 115.346 201.169 115.724 201.169 116.214C201.169 116.704 201.547 117.082 202.037 117.082ZM210.438 126H211.698V121.478C211.698 119.28 210.34 118.188 208.562 118.188C207.526 118.188 206.602 118.622 206.098 119.42V118.328H204.824V126H206.098V121.758C206.098 120.106 206.994 119.294 208.296 119.294C209.584 119.294 210.438 120.092 210.438 121.66V126ZM213.779 126H215.053V122.612L218.063 126H219.799L216.173 122.15L219.785 118.328H218.007L215.053 121.73V115.64H213.779V126ZM230.261 123.256C230.261 124.32 229.505 124.95 228.245 124.95H225.991V121.506H228.203C229.449 121.506 230.261 122.178 230.261 123.256ZM230.009 118.874C230.009 119.868 229.323 120.456 228.133 120.456H225.991V117.292H228.105C229.351 117.292 230.009 117.908 230.009 118.874ZM231.535 123.382C231.535 122.178 230.667 121.156 229.603 120.974C230.541 120.666 231.311 119.952 231.311 118.72C231.311 117.362 230.275 116.242 228.217 116.242H224.717V126H228.357C230.373 126 231.535 124.852 231.535 123.382ZM232.827 122.136C232.827 124.516 234.409 126.126 236.453 126.126C237.867 126.126 238.861 125.398 239.323 124.572V126H240.611V118.328H239.323V119.728C238.875 118.93 237.895 118.202 236.467 118.202C234.409 118.202 232.827 119.742 232.827 122.136ZM239.323 122.15C239.323 123.956 238.119 125.006 236.719 125.006C235.319 125.006 234.129 123.942 234.129 122.136C234.129 120.33 235.319 119.308 236.719 119.308C238.119 119.308 239.323 120.372 239.323 122.15ZM242.288 122.136C242.288 124.516 243.87 126.126 245.928 126.126C247.328 126.126 248.322 125.384 248.784 124.558V126.168C248.784 127.806 247.762 128.674 246.404 128.674C245.144 128.674 244.234 128.044 243.954 127.12H242.694C242.946 128.758 244.388 129.78 246.404 129.78C248.658 129.78 250.072 128.282 250.072 126.168V118.328H248.784V119.728C248.336 118.902 247.328 118.202 245.928 118.202C243.87 118.202 242.288 119.742 242.288 122.136ZM248.784 122.15C248.784 123.956 247.58 125.006 246.18 125.006C244.78 125.006 243.59 123.942 243.59 122.136C243.59 120.33 244.78 119.308 246.18 119.308C247.58 119.308 248.784 120.372 248.784 122.15ZM256.755 126H258.043V115.878H255.411V117.04H256.755V126ZM262.079 120.736C260.945 121.072 260.203 121.996 260.203 123.27C260.203 125.104 261.645 126.28 263.773 126.28C265.915 126.28 267.371 125.104 267.371 123.27C267.371 122.01 266.629 121.086 265.481 120.736C266.475 120.344 267.105 119.504 267.105 118.412C267.105 116.942 265.971 115.724 263.773 115.724C261.575 115.724 260.455 116.928 260.455 118.412C260.455 119.546 261.043 120.33 262.079 120.736ZM263.773 120.316C262.541 120.316 261.687 119.63 261.687 118.58C261.687 117.39 262.527 116.788 263.773 116.788C265.047 116.788 265.873 117.404 265.873 118.566C265.873 119.616 265.019 120.316 263.773 120.316ZM263.773 121.296C265.103 121.296 266.111 121.926 266.111 123.228C266.111 124.404 265.215 125.216 263.773 125.216C262.331 125.216 261.421 124.418 261.421 123.228C261.421 121.884 262.471 121.296 263.773 121.296ZM268.867 117.642H269.749L269.917 114.856H268.685L268.867 117.642Z" fill="#444A6D"/>
<path d="M26.868 120.834C26.868 123.774 27.596 126 30.396 126C33.182 126 33.91 123.774 33.91 120.834C33.91 117.936 33.182 115.724 30.396 115.724C27.596 115.724 26.868 117.936 26.868 120.834ZM32.65 120.834C32.65 123.018 32.384 124.838 30.396 124.838C28.394 124.838 28.128 123.018 28.128 120.834C28.128 118.734 28.394 116.886 30.396 116.886C32.384 116.886 32.65 118.734 32.65 120.834ZM35.505 125.888H42.239V124.824H37.423C39.229 123.354 41.945 121.212 41.945 118.692C41.945 116.816 40.713 115.696 38.809 115.696C36.989 115.696 35.631 116.816 35.547 118.972H36.779C36.835 117.698 37.507 116.788 38.823 116.788C40.195 116.788 40.685 117.628 40.685 118.748C40.685 120.82 38.165 122.836 35.505 124.978V125.888Z" fill="#444A6D"/>
<g clip-path="url(#clip3_10314_14)">
<rect x="559.5" y="107.5" width="49" height="23" rx="7.5" fill="#F0FDF4" stroke="#00E58F"/>
<path d="M577.944 124H571.844V123.092L574.288 120.636C575.033 119.882 575.524 119.345 575.761 119.023C575.998 118.702 576.175 118.389 576.294 118.084C576.412 117.779 576.472 117.451 576.472 117.1C576.472 116.605 576.321 116.214 576.021 115.926C575.721 115.634 575.304 115.488 574.771 115.488C574.385 115.488 574.019 115.551 573.672 115.678C573.33 115.805 572.947 116.036 572.523 116.37L571.965 115.653C572.82 114.942 573.751 114.586 574.758 114.586C575.63 114.586 576.313 114.811 576.808 115.259C577.303 115.704 577.551 116.302 577.551 117.056C577.551 117.644 577.386 118.226 577.056 118.801C576.726 119.377 576.108 120.105 575.202 120.985L573.171 122.972V123.022H577.944V124ZM585.384 118.681C585.384 122.312 583.979 124.127 581.169 124.127C580.678 124.127 580.289 124.085 580.001 124V123.092C580.34 123.202 580.725 123.257 581.156 123.257C582.172 123.257 582.938 122.944 583.454 122.318C583.975 121.687 584.258 120.722 584.305 119.423H584.229C583.996 119.775 583.687 120.043 583.302 120.229C582.917 120.411 582.483 120.502 582 120.502C581.18 120.502 580.528 120.257 580.045 119.766C579.563 119.275 579.322 118.59 579.322 117.709C579.322 116.745 579.59 115.983 580.128 115.424C580.67 114.866 581.381 114.586 582.261 114.586C582.891 114.586 583.441 114.749 583.911 115.075C584.385 115.397 584.749 115.869 585.003 116.491C585.257 117.109 585.384 117.839 585.384 118.681ZM582.261 115.488C581.656 115.488 581.188 115.682 580.858 116.072C580.528 116.461 580.363 117.003 580.363 117.697C580.363 118.306 580.515 118.786 580.82 119.138C581.125 119.485 581.588 119.658 582.21 119.658C582.595 119.658 582.948 119.58 583.27 119.423C583.596 119.267 583.852 119.053 584.038 118.782C584.224 118.511 584.317 118.228 584.317 117.932C584.317 117.487 584.231 117.077 584.057 116.7C583.884 116.324 583.64 116.027 583.327 115.812C583.018 115.596 582.663 115.488 582.261 115.488ZM587.625 117.487C587.625 118.207 587.703 118.746 587.859 119.106C588.016 119.466 588.27 119.646 588.621 119.646C589.315 119.646 589.662 118.926 589.662 117.487C589.662 116.057 589.315 115.342 588.621 115.342C588.27 115.342 588.016 115.52 587.859 115.875C587.703 116.23 587.625 116.768 587.625 117.487ZM590.532 117.487C590.532 118.452 590.369 119.182 590.043 119.677C589.721 120.168 589.247 120.414 588.621 120.414C588.029 120.414 587.567 120.162 587.237 119.658C586.911 119.155 586.749 118.431 586.749 117.487C586.749 116.527 586.905 115.803 587.218 115.316C587.536 114.83 588.003 114.586 588.621 114.586C589.235 114.586 589.707 114.838 590.037 115.342C590.367 115.845 590.532 116.561 590.532 117.487ZM593.21 121.207C593.21 121.931 593.289 122.472 593.445 122.832C593.602 123.188 593.858 123.365 594.213 123.365C594.569 123.365 594.831 123.19 595 122.838C595.17 122.483 595.254 121.939 595.254 121.207C595.254 120.483 595.17 119.948 595 119.601C594.831 119.25 594.569 119.074 594.213 119.074C593.858 119.074 593.602 119.25 593.445 119.601C593.289 119.948 593.21 120.483 593.21 121.207ZM596.124 121.207C596.124 122.168 595.961 122.896 595.635 123.391C595.314 123.882 594.84 124.127 594.213 124.127C593.612 124.127 593.149 123.875 592.823 123.372C592.502 122.868 592.341 122.146 592.341 121.207C592.341 120.246 592.497 119.523 592.811 119.036C593.128 118.549 593.596 118.306 594.213 118.306C594.814 118.306 595.282 118.556 595.616 119.055C595.955 119.55 596.124 120.268 596.124 121.207ZM594.486 114.72L589.338 124H588.405L593.553 114.72H594.486Z" fill="#00E58F"/>
</g>
<rect x="333" y="118" width="180" height="4" rx="2" fill="#8CFAC7"/>
<rect x="333" y="118" width="110" height="4" rx="2" fill="#00E096"/>
</g>
<rect y="149" width="645" height="1" fill="#EDF2F6"/>
<g clip-path="url(#clip4_10314_14)">
<path d="M87.622 184.256C87.622 185.32 86.866 185.95 85.606 185.95H83.352V182.506H85.564C86.81 182.506 87.622 183.178 87.622 184.256ZM87.37 179.874C87.37 180.868 86.684 181.456 85.494 181.456H83.352V178.292H85.466C86.712 178.292 87.37 178.908 87.37 179.874ZM88.896 184.382C88.896 183.178 88.028 182.156 86.964 181.974C87.902 181.666 88.672 180.952 88.672 179.72C88.672 178.362 87.636 177.242 85.578 177.242H82.078V187H85.718C87.734 187 88.896 185.852 88.896 184.382ZM90.1879 183.136C90.1879 185.516 91.7699 187.126 93.8139 187.126C95.2279 187.126 96.2219 186.398 96.6839 185.572V187H97.9719V179.328H96.6839V180.728C96.2359 179.93 95.2559 179.202 93.8279 179.202C91.7699 179.202 90.1879 180.742 90.1879 183.136ZM96.6839 183.15C96.6839 184.956 95.4799 186.006 94.0799 186.006C92.6799 186.006 91.4899 184.942 91.4899 183.136C91.4899 181.33 92.6799 180.308 94.0799 180.308C95.4799 180.308 96.6839 181.372 96.6839 183.15ZM100.405 184.9C100.405 186.44 101.175 187 102.533 187H103.681V185.922H102.743C101.959 185.922 101.679 185.656 101.679 184.9V180.378H103.681V179.328H101.679V177.396H100.405V179.328H99.4109V180.378H100.405V184.9ZM105.224 187H106.498V182.758C106.498 181.106 107.394 180.294 108.696 180.294C109.984 180.294 110.838 181.092 110.838 182.66V187H112.098V182.478C112.098 180.28 110.74 179.188 109.032 179.188C107.954 179.188 107.002 179.622 106.498 180.434V176.64H105.224V187ZM115.454 182.828C115.454 181.05 116.378 180.504 117.596 180.504H117.932V179.188C116.714 179.188 115.888 179.72 115.454 180.574V179.328H114.18V187H115.454V182.828ZM126.682 183.15C126.682 180.728 124.988 179.202 122.804 179.202C120.634 179.202 118.926 180.728 118.926 183.15C118.926 185.586 120.578 187.126 122.748 187.126C124.932 187.126 126.682 185.586 126.682 183.15ZM120.228 183.15C120.228 181.218 121.446 180.308 122.79 180.308C124.106 180.308 125.38 181.218 125.38 183.15C125.38 185.096 124.078 186.006 122.748 186.006C121.418 186.006 120.228 185.096 120.228 183.15ZM135.637 183.15C135.637 180.728 133.943 179.202 131.759 179.202C129.589 179.202 127.881 180.728 127.881 183.15C127.881 185.586 129.533 187.126 131.703 187.126C133.887 187.126 135.637 185.586 135.637 183.15ZM129.183 183.15C129.183 181.218 130.401 180.308 131.745 180.308C133.061 180.308 134.335 181.218 134.335 183.15C134.335 185.096 133.033 186.006 131.703 186.006C130.373 186.006 129.183 185.096 129.183 183.15ZM148.386 187H149.646V182.478C149.646 180.28 148.288 179.188 146.538 179.188C145.362 179.188 144.27 179.79 143.822 180.896C143.318 179.748 142.268 179.188 141.008 179.188C140 179.188 139.09 179.622 138.586 180.434V179.328H137.312V187H138.586V182.772C138.586 181.12 139.468 180.294 140.756 180.294C142.016 180.294 142.856 181.092 142.856 182.66V187H144.116V182.772C144.116 181.12 144.998 180.294 146.286 180.294C147.546 180.294 148.386 181.092 148.386 182.66V187ZM160.719 177.228H155.469V187H160.719V185.95H156.743V182.59H160.299V181.54H156.743V178.278H160.719V177.228ZM168.162 184.914C168.106 182.17 163.654 183.164 163.654 181.344C163.654 180.728 164.214 180.28 165.152 180.28C166.174 180.28 166.762 180.84 166.818 181.61H168.092C168.008 180.112 166.888 179.202 165.194 179.202C163.486 179.202 162.38 180.168 162.38 181.344C162.38 184.2 166.916 183.206 166.916 184.914C166.916 185.544 166.356 186.048 165.348 186.048C164.27 186.048 163.612 185.488 163.542 184.746H162.226C162.31 186.146 163.57 187.126 165.362 187.126C167.056 187.126 168.162 186.174 168.162 184.914ZM175.477 184.914C175.421 182.17 170.969 183.164 170.969 181.344C170.969 180.728 171.529 180.28 172.467 180.28C173.489 180.28 174.077 180.84 174.133 181.61H175.407C175.323 180.112 174.203 179.202 172.509 179.202C170.801 179.202 169.695 180.168 169.695 181.344C169.695 184.2 174.231 183.206 174.231 184.914C174.231 185.544 173.671 186.048 172.663 186.048C171.585 186.048 170.927 185.488 170.857 184.746H169.541C169.625 186.146 170.885 187.126 172.677 187.126C174.371 187.126 175.477 186.174 175.477 184.914ZM180.537 180.28C181.853 180.28 182.973 181.106 182.959 182.604H178.115C178.255 181.106 179.291 180.28 180.537 180.28ZM184.121 184.634H182.749C182.469 185.46 181.741 186.048 180.593 186.048C179.291 186.048 178.199 185.194 178.101 183.64H184.233C184.261 183.374 184.275 183.15 184.275 182.87C184.275 180.77 182.819 179.202 180.593 179.202C178.353 179.202 176.799 180.728 176.799 183.15C176.799 185.586 178.409 187.126 180.593 187.126C182.497 187.126 183.729 186.034 184.121 184.634ZM191.571 187H192.831V182.478C192.831 180.28 191.473 179.188 189.695 179.188C188.659 179.188 187.735 179.622 187.231 180.42V179.328H185.957V187H187.231V182.758C187.231 181.106 188.127 180.294 189.429 180.294C190.717 180.294 191.571 181.092 191.571 182.66V187ZM195.192 184.9C195.192 186.44 195.962 187 197.32 187H198.468V185.922H197.53C196.746 185.922 196.466 185.656 196.466 184.9V180.378H198.468V179.328H196.466V177.396H195.192V179.328H194.198V180.378H195.192V184.9ZM200.012 187H201.286V179.328H200.012V187ZM200.67 178.082C201.132 178.082 201.51 177.704 201.51 177.214C201.51 176.724 201.132 176.346 200.67 176.346C200.18 176.346 199.802 176.724 199.802 177.214C199.802 177.704 200.18 178.082 200.67 178.082ZM202.981 183.136C202.981 185.516 204.563 187.126 206.607 187.126C208.021 187.126 209.015 186.398 209.477 185.572V187H210.765V179.328H209.477V180.728C209.029 179.93 208.049 179.202 206.621 179.202C204.563 179.202 202.981 180.742 202.981 183.136ZM209.477 183.15C209.477 184.956 208.273 186.006 206.873 186.006C205.473 186.006 204.283 184.942 204.283 183.136C204.283 181.33 205.473 180.308 206.873 180.308C208.273 180.308 209.477 181.372 209.477 183.15ZM212.918 187H214.192V176.64H212.918V187ZM221.879 184.914C221.823 182.17 217.371 183.164 217.371 181.344C217.371 180.728 217.931 180.28 218.869 180.28C219.891 180.28 220.479 180.84 220.535 181.61H221.809C221.725 180.112 220.605 179.202 218.911 179.202C217.203 179.202 216.097 180.168 216.097 181.344C216.097 184.2 220.633 183.206 220.633 184.914C220.633 185.544 220.073 186.048 219.065 186.048C217.987 186.048 217.329 185.488 217.259 184.746H215.943C216.027 186.146 217.287 187.126 219.079 187.126C220.773 187.126 221.879 186.174 221.879 184.914Z" fill="#444A6D"/>
<path d="M26.868 181.834C26.868 184.774 27.596 187 30.396 187C33.182 187 33.91 184.774 33.91 181.834C33.91 178.936 33.182 176.724 30.396 176.724C27.596 176.724 26.868 178.936 26.868 181.834ZM32.65 181.834C32.65 184.018 32.384 185.838 30.396 185.838C28.394 185.838 28.128 184.018 28.128 181.834C28.128 179.734 28.394 177.886 30.396 177.886C32.384 177.886 32.65 179.734 32.65 181.834ZM35.631 179.426H36.877C37.003 178.446 37.717 177.774 38.907 177.774C40.125 177.774 40.769 178.446 40.769 179.412C40.769 180.588 39.859 181.106 38.165 181.12H37.829V182.184H38.151C39.971 182.184 40.965 182.73 40.965 184.158C40.965 185.194 40.321 185.992 38.963 185.992C37.619 185.992 36.835 185.166 36.709 184.088H35.477C35.631 186.048 37.059 187.07 38.977 187.07C41.091 187.07 42.183 185.838 42.183 184.27C42.183 182.814 41.385 181.946 40.209 181.666V181.596C41.273 181.358 42.001 180.448 42.001 179.286C42.001 177.83 40.923 176.682 38.949 176.682C37.073 176.682 35.757 177.69 35.631 179.426Z" fill="#444A6D"/>
<g clip-path="url(#clip5_10314_14)">
<rect x="559.5" y="168.5" width="49" height="23" rx="7.5" fill="#FBF1FF" stroke="#884DFF"/>
<path d="M575.748 185H574.72V178.386C574.72 177.836 574.737 177.315 574.771 176.824C574.682 176.913 574.582 177.006 574.472 177.104C574.362 177.201 573.859 177.613 572.961 178.341L572.403 177.618L574.859 175.72H575.748V185ZM582.356 175.586C583.202 175.586 583.873 175.783 584.368 176.177C584.863 176.57 585.111 177.114 585.111 177.808C585.111 178.265 584.969 178.682 584.686 179.059C584.402 179.435 583.949 179.778 583.327 180.087C584.08 180.447 584.616 180.825 584.933 181.223C585.25 181.617 585.409 182.074 585.409 182.594C585.409 183.364 585.14 183.98 584.603 184.441C584.066 184.898 583.329 185.127 582.394 185.127C581.404 185.127 580.642 184.911 580.109 184.479C579.576 184.044 579.309 183.428 579.309 182.632C579.309 181.57 579.957 180.743 581.251 180.15C580.667 179.82 580.249 179.465 579.995 179.084C579.741 178.699 579.614 178.269 579.614 177.795C579.614 177.123 579.861 176.587 580.356 176.189C580.856 175.787 581.522 175.586 582.356 175.586ZM580.35 182.658C580.35 183.166 580.526 183.561 580.877 183.845C581.232 184.128 581.73 184.27 582.369 184.27C582.999 184.27 583.49 184.122 583.841 183.826C584.193 183.529 584.368 183.123 584.368 182.607C584.368 182.196 584.203 181.833 583.873 181.515C583.543 181.194 582.967 180.882 582.146 180.582C581.516 180.853 581.059 181.153 580.775 181.483C580.492 181.809 580.35 182.201 580.35 182.658ZM582.343 176.443C581.814 176.443 581.4 176.57 581.099 176.824C580.799 177.078 580.648 177.417 580.648 177.84C580.648 178.229 580.773 178.563 581.023 178.843C581.273 179.122 581.734 179.401 582.407 179.681C583.012 179.427 583.439 179.154 583.689 178.862C583.943 178.57 584.07 178.229 584.07 177.84C584.07 177.412 583.915 177.074 583.606 176.824C583.302 176.57 582.881 176.443 582.343 176.443ZM587.625 178.487C587.625 179.207 587.703 179.746 587.859 180.106C588.016 180.466 588.27 180.646 588.621 180.646C589.315 180.646 589.662 179.926 589.662 178.487C589.662 177.057 589.315 176.342 588.621 176.342C588.27 176.342 588.016 176.52 587.859 176.875C587.703 177.23 587.625 177.768 587.625 178.487ZM590.532 178.487C590.532 179.452 590.369 180.182 590.043 180.677C589.721 181.168 589.247 181.414 588.621 181.414C588.029 181.414 587.567 181.162 587.237 180.658C586.911 180.155 586.749 179.431 586.749 178.487C586.749 177.527 586.905 176.803 587.218 176.316C587.536 175.83 588.003 175.586 588.621 175.586C589.235 175.586 589.707 175.838 590.037 176.342C590.367 176.845 590.532 177.561 590.532 178.487ZM593.21 182.207C593.21 182.931 593.289 183.472 593.445 183.832C593.602 184.188 593.858 184.365 594.213 184.365C594.569 184.365 594.831 184.19 595 183.838C595.17 183.483 595.254 182.939 595.254 182.207C595.254 181.483 595.17 180.948 595 180.601C594.831 180.25 594.569 180.074 594.213 180.074C593.858 180.074 593.602 180.25 593.445 180.601C593.289 180.948 593.21 181.483 593.21 182.207ZM596.124 182.207C596.124 183.168 595.961 183.896 595.635 184.391C595.314 184.882 594.84 185.127 594.213 185.127C593.612 185.127 593.149 184.875 592.823 184.372C592.502 183.868 592.341 183.146 592.341 182.207C592.341 181.246 592.497 180.523 592.811 180.036C593.128 179.549 593.596 179.306 594.213 179.306C594.814 179.306 595.282 179.556 595.616 180.055C595.955 180.55 596.124 181.268 596.124 182.207ZM594.486 175.72L589.338 185H588.405L593.553 175.72H594.486Z" fill="#884DFF"/>
</g>
<rect x="333" y="179" width="180" height="4" rx="2" fill="#C5A8FF"/>
<rect x="333" y="179" width="100" height="4" rx="2" fill="#884DFF"/>
</g>
<rect y="210" width="645" height="1" fill="#EDF2F6"/>
<g clip-path="url(#clip6_10314_14)">
<path d="M88.63 248H89.974L86.46 238.298H84.99L81.462 248H82.806L83.59 245.83H87.846L88.63 248ZM87.482 244.794H83.954L85.718 239.866L87.482 244.794ZM92.7856 241.742V240.328H91.5116V251.64H92.7856V246.586C93.2616 247.37 94.2556 248.126 95.6556 248.126C97.7136 248.126 99.2956 246.516 99.2956 244.136C99.2956 241.742 97.7136 240.202 95.6556 240.202C94.2556 240.202 93.2476 240.93 92.7856 241.742ZM97.9936 244.136C97.9936 245.942 96.8036 247.006 95.3896 247.006C94.0036 247.006 92.7856 245.956 92.7856 244.15C92.7856 242.372 94.0036 241.308 95.3896 241.308C96.8036 241.308 97.9936 242.33 97.9936 244.136ZM102.247 241.742V240.328H100.973V251.64H102.247V246.586C102.723 247.37 103.717 248.126 105.117 248.126C107.175 248.126 108.757 246.516 108.757 244.136C108.757 241.742 107.175 240.202 105.117 240.202C103.717 240.202 102.709 240.93 102.247 241.742ZM107.455 244.136C107.455 245.942 106.265 247.006 104.851 247.006C103.465 247.006 102.247 245.956 102.247 244.15C102.247 242.372 103.465 241.308 104.851 241.308C106.265 241.308 107.455 242.33 107.455 244.136ZM110.433 248H111.707V237.64H110.433V248ZM117.141 241.28C118.457 241.28 119.577 242.106 119.563 243.604H114.719C114.859 242.106 115.895 241.28 117.141 241.28ZM120.725 245.634H119.353C119.073 246.46 118.345 247.048 117.197 247.048C115.895 247.048 114.803 246.194 114.705 244.64H120.837C120.865 244.374 120.879 244.15 120.879 243.87C120.879 241.77 119.423 240.202 117.197 240.202C114.957 240.202 113.403 241.728 113.403 244.15C113.403 246.586 115.013 248.126 117.197 248.126C119.101 248.126 120.333 247.034 120.725 245.634ZM132.635 245.34C132.635 241.728 127.371 243.296 127.371 240.776C127.371 239.726 128.197 239.18 129.247 239.208C130.437 239.222 131.053 239.964 131.137 240.622H132.537C132.383 239.138 131.165 238.116 129.303 238.116C127.371 238.116 126.069 239.208 126.069 240.818C126.069 244.444 131.347 242.764 131.347 245.396C131.347 246.32 130.619 247.02 129.387 247.02C128.029 247.02 127.455 246.208 127.371 245.396H126.013C126.041 247.006 127.427 248.098 129.387 248.098C131.501 248.098 132.635 246.726 132.635 245.34ZM145.584 248H146.844V243.478C146.844 241.28 145.486 240.188 143.736 240.188C142.56 240.188 141.468 240.79 141.02 241.896C140.516 240.748 139.466 240.188 138.206 240.188C137.198 240.188 136.288 240.622 135.784 241.434V240.328H134.51V248H135.784V243.772C135.784 242.12 136.666 241.294 137.954 241.294C139.214 241.294 140.054 242.092 140.054 243.66V248H141.314V243.772C141.314 242.12 142.196 241.294 143.484 241.294C144.744 241.294 145.584 242.092 145.584 243.66V248ZM148.457 244.136C148.457 246.516 150.039 248.126 152.083 248.126C153.497 248.126 154.491 247.398 154.953 246.572V248H156.241V240.328H154.953V241.728C154.505 240.93 153.525 240.202 152.097 240.202C150.039 240.202 148.457 241.742 148.457 244.136ZM154.953 244.15C154.953 245.956 153.749 247.006 152.349 247.006C150.949 247.006 149.759 245.942 149.759 244.136C149.759 242.33 150.949 241.308 152.349 241.308C153.749 241.308 154.953 242.372 154.953 244.15ZM159.668 243.828C159.668 242.05 160.592 241.504 161.81 241.504H162.146V240.188C160.928 240.188 160.102 240.72 159.668 241.574V240.328H158.394V248H159.668V243.828ZM163.897 245.9C163.897 247.44 164.667 248 166.025 248H167.173V246.922H166.235C165.451 246.922 165.171 246.656 165.171 245.9V241.378H167.173V240.328H165.171V238.396H163.897V240.328H162.903V241.378H163.897V245.9ZM170.215 248H171.531L173.379 241.91L175.227 248H176.543L178.937 240.328H177.677L175.941 246.782L174.079 240.328H172.777L170.873 246.768L169.109 240.328H167.807L170.215 248ZM179.725 244.136C179.725 246.516 181.307 248.126 183.351 248.126C184.765 248.126 185.759 247.398 186.221 246.572V248H187.509V240.328H186.221V241.728C185.773 240.93 184.793 240.202 183.365 240.202C181.307 240.202 179.725 241.742 179.725 244.136ZM186.221 244.15C186.221 245.956 185.017 247.006 183.617 247.006C182.217 247.006 181.027 245.942 181.027 244.136C181.027 242.33 182.217 241.308 183.617 241.308C185.017 241.308 186.221 242.372 186.221 244.15ZM189.942 245.9C189.942 247.44 190.712 248 192.07 248H193.218V246.922H192.28C191.496 246.922 191.216 246.656 191.216 245.9V241.378H193.218V240.328H191.216V238.396H189.942V240.328H188.948V241.378H189.942V245.9ZM194.286 244.15C194.286 246.586 195.84 248.126 198.024 248.126C199.928 248.126 201.174 247.062 201.566 245.536H200.194C199.914 246.502 199.158 247.048 198.024 247.048C196.624 247.048 195.588 246.054 195.588 244.15C195.588 242.274 196.624 241.28 198.024 241.28C199.158 241.28 199.928 241.868 200.194 242.792H201.566C201.174 241.182 199.928 240.202 198.024 240.202C195.84 240.202 194.286 241.742 194.286 244.15ZM203.266 248H204.54V243.758C204.54 242.106 205.436 241.294 206.738 241.294C208.026 241.294 208.88 242.092 208.88 243.66V248H210.14V243.478C210.14 241.28 208.782 240.188 207.074 240.188C205.996 240.188 205.044 240.622 204.54 241.434V237.64H203.266V248ZM215.483 241.28C216.799 241.28 217.919 242.106 217.905 243.604H213.061C213.201 242.106 214.237 241.28 215.483 241.28ZM219.067 245.634H217.695C217.415 246.46 216.687 247.048 215.539 247.048C214.237 247.048 213.145 246.194 213.047 244.64H219.179C219.207 244.374 219.221 244.15 219.221 243.87C219.221 241.77 217.765 240.202 215.539 240.202C213.299 240.202 211.745 241.728 211.745 244.15C211.745 246.586 213.355 248.126 215.539 248.126C217.443 248.126 218.675 247.034 219.067 245.634ZM226.418 245.914C226.362 243.17 221.91 244.164 221.91 242.344C221.91 241.728 222.47 241.28 223.408 241.28C224.43 241.28 225.018 241.84 225.074 242.61H226.348C226.264 241.112 225.144 240.202 223.45 240.202C221.742 240.202 220.636 241.168 220.636 242.344C220.636 245.2 225.172 244.206 225.172 245.914C225.172 246.544 224.612 247.048 223.604 247.048C222.526 247.048 221.868 246.488 221.798 245.746H220.482C220.566 247.146 221.826 248.126 223.618 248.126C225.312 248.126 226.418 247.174 226.418 245.914Z" fill="#444A6D"/>
<path d="M26.868 242.834C26.868 245.774 27.596 248 30.396 248C33.182 248 33.91 245.774 33.91 242.834C33.91 239.936 33.182 237.724 30.396 237.724C27.596 237.724 26.868 239.936 26.868 242.834ZM32.65 242.834C32.65 245.018 32.384 246.838 30.396 246.838C28.394 246.838 28.128 245.018 28.128 242.834C28.128 240.734 28.394 238.886 30.396 238.886C32.384 238.886 32.65 240.734 32.65 242.834ZM40.531 248H41.791V245.746H43.191V244.64H41.791V237.976H40.265L35.351 244.78V245.746H40.531V248ZM36.821 244.64L40.587 239.306V244.64H36.821Z" fill="#444A6D"/>
<g clip-path="url(#clip7_10314_14)">
<rect x="559.5" y="229.5" width="49" height="23" rx="7.5" fill="#FEF6E6" stroke="#FF8900"/>
<path d="M577.944 246H571.844V245.092L574.288 242.636C575.033 241.882 575.524 241.345 575.761 241.023C575.998 240.702 576.175 240.389 576.294 240.084C576.412 239.779 576.472 239.451 576.472 239.1C576.472 238.605 576.321 238.214 576.021 237.926C575.721 237.634 575.304 237.488 574.771 237.488C574.385 237.488 574.019 237.551 573.672 237.678C573.33 237.805 572.947 238.036 572.523 238.37L571.965 237.653C572.82 236.942 573.751 236.586 574.758 236.586C575.63 236.586 576.313 236.811 576.808 237.259C577.303 237.704 577.551 238.302 577.551 239.056C577.551 239.644 577.386 240.226 577.056 240.801C576.726 241.377 576.108 242.105 575.202 242.985L573.171 244.972V245.022H577.944V246ZM582.185 240.332C583.162 240.332 583.93 240.575 584.489 241.062C585.052 241.544 585.333 242.206 585.333 243.048C585.333 244.009 585.026 244.762 584.413 245.308C583.803 245.854 582.961 246.127 581.886 246.127C580.841 246.127 580.043 245.96 579.493 245.625V244.61C579.789 244.8 580.158 244.951 580.598 245.061C581.038 245.166 581.472 245.219 581.899 245.219C582.644 245.219 583.221 245.044 583.632 244.692C584.047 244.341 584.254 243.833 584.254 243.169C584.254 241.874 583.46 241.227 581.874 241.227C581.472 241.227 580.934 241.288 580.261 241.411L579.715 241.062L580.064 236.72H584.679V237.691H580.966L580.731 240.478C581.218 240.38 581.702 240.332 582.185 240.332ZM587.625 239.487C587.625 240.207 587.703 240.746 587.859 241.106C588.016 241.466 588.27 241.646 588.621 241.646C589.315 241.646 589.662 240.926 589.662 239.487C589.662 238.057 589.315 237.342 588.621 237.342C588.27 237.342 588.016 237.52 587.859 237.875C587.703 238.23 587.625 238.768 587.625 239.487ZM590.532 239.487C590.532 240.452 590.369 241.182 590.043 241.677C589.721 242.168 589.247 242.414 588.621 242.414C588.029 242.414 587.567 242.162 587.237 241.658C586.911 241.155 586.749 240.431 586.749 239.487C586.749 238.527 586.905 237.803 587.218 237.316C587.536 236.83 588.003 236.586 588.621 236.586C589.235 236.586 589.707 236.838 590.037 237.342C590.367 237.845 590.532 238.561 590.532 239.487ZM593.21 243.207C593.21 243.931 593.289 244.472 593.445 244.832C593.602 245.188 593.858 245.365 594.213 245.365C594.569 245.365 594.831 245.19 595 244.838C595.17 244.483 595.254 243.939 595.254 243.207C595.254 242.483 595.17 241.948 595 241.601C594.831 241.25 594.569 241.074 594.213 241.074C593.858 241.074 593.602 241.25 593.445 241.601C593.289 241.948 593.21 242.483 593.21 243.207ZM596.124 243.207C596.124 244.168 595.961 244.896 595.635 245.391C595.314 245.882 594.84 246.127 594.213 246.127C593.612 246.127 593.149 245.875 592.823 245.372C592.502 244.868 592.341 244.146 592.341 243.207C592.341 242.246 592.497 241.523 592.811 241.036C593.128 240.549 593.596 240.306 594.213 240.306C594.814 240.306 595.282 240.556 595.616 241.055C595.955 241.55 596.124 242.268 596.124 243.207ZM594.486 236.72L589.338 246H588.405L593.553 236.72H594.486Z" fill="#FF8900"/>
</g>
<rect x="333" y="240" width="180" height="4" rx="2" fill="#FFD5A4"/>
<rect x="333" y="240" width="60" height="4" rx="2" fill="#FF8F0D"/>
</g>
<defs>
<clipPath id="clip0_10314_14">
<rect width="583" height="24" fill="white" transform="translate(26 46)"/>
</clipPath>
<clipPath id="clip1_10314_14">
<rect width="50" height="24" fill="white" transform="translate(559 46)"/>
</clipPath>
<clipPath id="clip2_10314_14">
<rect width="583" height="24" fill="white" transform="translate(26 107)"/>
</clipPath>
<clipPath id="clip3_10314_14">
<rect width="50" height="24" fill="white" transform="translate(559 107)"/>
</clipPath>
<clipPath id="clip4_10314_14">
<rect width="583" height="24" fill="white" transform="translate(26 168)"/>
</clipPath>
<clipPath id="clip5_10314_14">
<rect width="50" height="24" fill="white" transform="translate(559 168)"/>
</clipPath>
<clipPath id="clip6_10314_14">
<rect width="583" height="24" fill="white" transform="translate(26 229)"/>
</clipPath>
<clipPath id="clip7_10314_14">
<rect width="50" height="24" fill="white" transform="translate(559 229)"/>
</clipPath>
</defs>
</svg>
