<svg width="398" height="259" viewBox="0 0 398 259" fill="none" xmlns="http://www.w3.org/2000/svg">
<rect x="15" y="192" width="368" height="1" fill="#EDF2F6"/>
<path d="M244.78 254.792H245.69V253.644C247.58 253.476 248.616 252.16 248.616 250.802C248.616 248.828 247.09 248.45 245.69 248.114V245.09C246.362 245.258 246.754 245.776 246.81 246.336H248.518C248.392 244.754 247.3 243.872 245.69 243.732V242.598H244.78V243.746C243.044 243.9 241.84 244.978 241.84 246.546C241.84 248.52 243.38 248.912 244.78 249.262V252.342C243.996 252.202 243.604 251.684 243.548 250.984H241.84C241.84 252.566 243.072 253.504 244.78 253.658V254.792ZM247.006 250.886C247.006 251.614 246.53 252.202 245.69 252.342V249.5C246.446 249.738 247.006 250.088 247.006 250.886ZM243.464 246.462C243.464 245.608 244.01 245.146 244.78 245.048V247.876C244.024 247.638 243.464 247.274 243.464 246.462ZM255.817 253.574H257.385V251.446H258.687V250.06H257.385V243.494H255.453L250.749 250.242V251.446H255.817V253.574ZM252.583 250.06L255.887 245.118V250.06H252.583ZM259.24 255.52H260.276L261.97 251.656H260.234L259.24 255.52ZM263.574 243.34V249.234H265.086C265.352 248.478 265.982 247.96 266.92 247.96C268.25 247.96 268.908 248.716 268.908 250.046C268.908 251.306 268.292 252.244 266.92 252.244C265.842 252.244 265.114 251.684 264.904 250.816H263.35C263.588 252.412 264.806 253.574 266.906 253.574C269.272 253.574 270.434 252.034 270.434 250.004C270.434 248.464 269.664 246.602 267.158 246.602C266.248 246.602 265.422 247.022 265.044 247.526V244.74H269.734V243.34H263.574ZM272.096 248.338C272.096 251.306 272.88 253.546 275.736 253.546C278.592 253.546 279.376 251.306 279.376 248.338C279.376 245.426 278.592 243.186 275.736 243.186C272.88 243.186 272.096 245.426 272.096 248.338ZM277.808 248.338C277.808 250.34 277.598 252.09 275.736 252.09C273.874 252.09 273.664 250.34 273.664 248.338C273.664 246.434 273.874 244.642 275.736 244.642C277.598 244.642 277.808 246.434 277.808 248.338ZM285.937 253.574H287.505V251.446H288.807V250.06H287.505V243.494H285.573L280.869 250.242V251.446H285.937V253.574ZM282.703 250.06L286.007 245.118V250.06H282.703Z" fill="#222B45"/>
<path d="M241.544 220.032H244.6V230H246.056V220.032H249.096V218.848H241.544V220.032ZM250.888 230H252.344V225.152C252.344 223.264 253.368 222.336 254.856 222.336C256.328 222.336 257.304 223.248 257.304 225.04V230H258.744V224.832C258.744 222.32 257.192 221.072 255.24 221.072C254.008 221.072 252.92 221.568 252.344 222.496V218.16H250.888V230ZM261.123 230H262.579V221.232H261.123V230ZM261.875 219.808C262.403 219.808 262.835 219.376 262.835 218.816C262.835 218.256 262.403 217.824 261.875 217.824C261.315 217.824 260.883 218.256 260.883 218.816C260.883 219.376 261.315 219.808 261.875 219.808ZM271.364 227.616C271.3 224.48 266.212 225.616 266.212 223.536C266.212 222.832 266.852 222.32 267.924 222.32C269.092 222.32 269.764 222.96 269.828 223.84H271.284C271.188 222.128 269.908 221.088 267.972 221.088C266.02 221.088 264.756 222.192 264.756 223.536C264.756 226.8 269.94 225.664 269.94 227.616C269.94 228.336 269.3 228.912 268.148 228.912C266.916 228.912 266.164 228.272 266.084 227.424H264.58C264.676 229.024 266.116 230.144 268.164 230.144C270.1 230.144 271.364 229.056 271.364 227.616ZM277.685 230H279.141V221.728L282.837 230H283.861L287.541 221.744V230H288.997V218.928H287.445L283.349 228.08L279.253 218.928H277.685V230ZM299.786 225.6C299.786 222.832 297.85 221.088 295.354 221.088C292.874 221.088 290.922 222.832 290.922 225.6C290.922 228.384 292.81 230.144 295.29 230.144C297.786 230.144 299.786 228.384 299.786 225.6ZM292.41 225.6C292.41 223.392 293.802 222.352 295.338 222.352C296.842 222.352 298.298 223.392 298.298 225.6C298.298 227.824 296.81 228.864 295.29 228.864C293.77 228.864 292.41 227.824 292.41 225.6ZM308.117 230H309.557V224.832C309.557 222.32 308.005 221.072 305.973 221.072C304.789 221.072 303.733 221.568 303.157 222.48V221.232H301.701V230H303.157V225.152C303.157 223.264 304.181 222.336 305.669 222.336C307.141 222.336 308.117 223.248 308.117 225.04V230ZM312.255 227.6C312.255 229.36 313.135 230 314.687 230H315.999V228.768H314.927C314.031 228.768 313.711 228.464 313.711 227.6V222.432H315.999V221.232H313.711V219.024H312.255V221.232H311.119V222.432H312.255V227.6ZM317.763 230H319.219V225.152C319.219 223.264 320.243 222.336 321.731 222.336C323.203 222.336 324.179 223.248 324.179 225.04V230H325.619V224.832C325.619 222.32 324.067 221.072 322.115 221.072C320.883 221.072 319.795 221.568 319.219 222.496V218.16H317.763V230Z" fill="#96A5B8"/>
<path d="M214 223.5H233" stroke="#05C283" stroke-width="3" stroke-linecap="round"/>
<circle cx="223.5" cy="223.5" r="4.5" fill="#07E098"/>
<path d="M101.78 255.218H102.69V254.07C104.58 253.902 105.616 252.586 105.616 251.228C105.616 249.254 104.09 248.876 102.69 248.54V245.516C103.362 245.684 103.754 246.202 103.81 246.762H105.518C105.392 245.18 104.3 244.298 102.69 244.158V243.024H101.78V244.172C100.044 244.326 98.84 245.404 98.84 246.972C98.84 248.946 100.38 249.338 101.78 249.688V252.768C100.996 252.628 100.604 252.11 100.548 251.41H98.84C98.84 252.992 100.072 253.93 101.78 254.084V255.218ZM104.006 251.312C104.006 252.04 103.53 252.628 102.69 252.768V249.926C103.446 250.164 104.006 250.514 104.006 251.312ZM100.464 246.888C100.464 246.034 101.01 245.572 101.78 245.474V248.302C101.024 248.064 100.464 247.7 100.464 246.888ZM107.917 246.314H109.471C109.569 245.6 110.087 244.928 111.207 244.928C112.299 244.928 112.873 245.516 112.873 246.398C112.873 247.49 111.991 247.91 110.549 247.924H110.171V249.24H110.535C112.201 249.24 113.069 249.702 113.069 251.046C113.069 251.998 112.481 252.726 111.291 252.726C110.087 252.726 109.387 251.998 109.317 251.046H107.777C107.875 253.048 109.373 254.056 111.305 254.056C113.433 254.056 114.581 252.824 114.581 251.2C114.581 249.786 113.895 248.904 112.831 248.582V248.526C113.629 248.26 114.399 247.434 114.399 246.216C114.399 244.732 113.293 243.556 111.263 243.556C109.401 243.556 108.029 244.55 107.917 246.314ZM115.488 255.946H116.524L118.218 252.082H116.482L115.488 255.946ZM119.403 248.764C119.403 251.732 120.187 253.972 123.043 253.972C125.899 253.972 126.683 251.732 126.683 248.764C126.683 245.852 125.899 243.612 123.043 243.612C120.187 243.612 119.403 245.852 119.403 248.764ZM125.115 248.764C125.115 250.766 124.905 252.516 123.043 252.516C121.181 252.516 120.971 250.766 120.971 248.764C120.971 246.86 121.181 245.068 123.043 245.068C124.905 245.068 125.115 246.86 125.115 248.764ZM128.371 248.764C128.371 251.732 129.155 253.972 132.011 253.972C134.867 253.972 135.651 251.732 135.651 248.764C135.651 245.852 134.867 243.612 132.011 243.612C129.155 243.612 128.371 245.852 128.371 248.764ZM134.083 248.764C134.083 250.766 133.873 252.516 132.011 252.516C130.149 252.516 129.939 250.766 129.939 248.764C129.939 246.86 130.149 245.068 132.011 245.068C133.873 245.068 134.083 246.86 134.083 248.764ZM142.212 254H143.78V251.872H145.082V250.486H143.78V243.92H141.848L137.144 250.668V251.872H142.212V254ZM138.978 250.486L142.282 245.544V250.486H138.978Z" fill="#222B45"/>
<path d="M99.232 218.848V230H104.592V228.816H100.688V218.848H99.232ZM105.594 225.584C105.594 228.304 107.402 230.144 109.738 230.144C111.354 230.144 112.49 229.312 113.018 228.368V230H114.49V221.232H113.018V222.832C112.506 221.92 111.386 221.088 109.754 221.088C107.402 221.088 105.594 222.848 105.594 225.584ZM113.018 225.6C113.018 227.664 111.642 228.864 110.042 228.864C108.442 228.864 107.082 227.648 107.082 225.584C107.082 223.52 108.442 222.352 110.042 222.352C111.642 222.352 113.018 223.568 113.018 225.6ZM123.255 227.616C123.191 224.48 118.103 225.616 118.103 223.536C118.103 222.832 118.743 222.32 119.815 222.32C120.983 222.32 121.655 222.96 121.719 223.84H123.175C123.079 222.128 121.799 221.088 119.863 221.088C117.911 221.088 116.647 222.192 116.647 223.536C116.647 226.8 121.831 225.664 121.831 227.616C121.831 228.336 121.191 228.912 120.039 228.912C118.807 228.912 118.055 228.272 117.975 227.424H116.471C116.567 229.024 118.007 230.144 120.055 230.144C121.991 230.144 123.255 229.056 123.255 227.616ZM125.63 227.6C125.63 229.36 126.51 230 128.062 230H129.374V228.768H128.302C127.406 228.768 127.086 228.464 127.086 227.6V222.432H129.374V221.232H127.086V219.024H125.63V221.232H124.494V222.432H125.63V227.6ZM135.404 230H136.86V221.728L140.556 230H141.58L145.26 221.744V230H146.716V218.928H145.164L141.068 228.08L136.972 218.928H135.404V230ZM157.505 225.6C157.505 222.832 155.569 221.088 153.073 221.088C150.593 221.088 148.641 222.832 148.641 225.6C148.641 228.384 150.529 230.144 153.009 230.144C155.505 230.144 157.505 228.384 157.505 225.6ZM150.129 225.6C150.129 223.392 151.521 222.352 153.057 222.352C154.561 222.352 156.017 223.392 156.017 225.6C156.017 227.824 154.529 228.864 153.009 228.864C151.489 228.864 150.129 227.824 150.129 225.6ZM165.836 230H167.276V224.832C167.276 222.32 165.724 221.072 163.692 221.072C162.508 221.072 161.452 221.568 160.876 222.48V221.232H159.42V230H160.876V225.152C160.876 223.264 161.9 222.336 163.388 222.336C164.86 222.336 165.836 223.248 165.836 225.04V230ZM169.974 227.6C169.974 229.36 170.854 230 172.406 230H173.718V228.768H172.646C171.75 228.768 171.43 228.464 171.43 227.6V222.432H173.718V221.232H171.43V219.024H169.974V221.232H168.838V222.432H169.974V227.6ZM175.482 230H176.938V225.152C176.938 223.264 177.962 222.336 179.45 222.336C180.922 222.336 181.898 223.248 181.898 225.04V230H183.338V224.832C183.338 222.32 181.786 221.072 179.834 221.072C178.602 221.072 177.514 221.568 176.938 222.496V218.16H175.482V230Z" fill="#96A5B8"/>
<path d="M71 224.5H90" stroke="#0080DA" stroke-width="3" stroke-linecap="round"/>
<circle cx="80.5" cy="224.5" r="4.5" fill="#0095FF"/>
<rect x="199" y="214.574" width="1" height="24" fill="#BDC9D3"/>
<path d="M3.19256 22.613C28.2038 29.9033 48.446 48.7051 76.6204 48.7051C104.795 48.7051 113.862 34.6037 131.957 34.6037C150.052 34.6037 162.212 62.8065 187.294 62.8065C212.376 62.8065 230.214 29.9033 255.401 29.9033C280.588 29.9033 315.405 81.6084 339.471 81.6084C363.537 81.6084 394.808 1.80627 394.808 1.80627" stroke="#05C283" stroke-width="2" stroke-linecap="round"/>
<path fill-rule="evenodd" clip-rule="evenodd" d="M3.19258 22.613C28.2038 29.9033 48.446 48.7051 76.6204 48.7051C104.795 48.7051 113.862 34.6037 131.957 34.6037C150.052 34.6037 162.212 62.8065 187.294 62.8065C212.376 62.8065 230.214 29.9033 255.401 29.9033C280.588 29.9033 315.405 81.6084 339.471 81.6084C363.537 81.6084 394.808 1.80627 394.808 1.80627V167H3.19258C3.19258 167 3.02566 30.5146 3.19258 22.613Z" fill="url(#paint0_linear_10311_12)"/>
<circle cx="394" cy="4" r="4" fill="#07E098"/>
<circle cx="340.278" cy="80.9078" r="4" fill="#07E098"/>
<circle cx="256.209" cy="29.2028" r="4" fill="#07E098"/>
<circle cx="188.102" cy="62.106" r="4" fill="#07E098"/>
<circle cx="132.765" cy="33.9032" r="4" fill="#07E098"/>
<circle cx="77.4278" cy="48.0046" r="4" fill="#07E098"/>
<circle cx="4" cy="21.3687" r="4" fill="#07E098"/>
<path d="M3.19256 100.527C19.488 100.527 54.8919 91.5334 71.4557 78.591C88.0196 65.6487 115.984 131.591 135.228 131.591C154.472 131.591 168.437 131.591 185.976 131.591C203.516 131.591 243.933 113.844 265.467 113.844C287.001 113.844 309.511 117.328 330.137 117.328C350.764 117.328 375.511 81.7247 394.808 81.7247" stroke="#007DD6" stroke-width="2" stroke-linecap="round"/>
<path fill-rule="evenodd" clip-rule="evenodd" d="M3.23546 100.527C19.5291 100.527 54.9291 91.5334 71.4911 78.591C88.0532 65.6487 114.218 131.591 133.46 131.591C152.702 131.591 169.757 131.591 187.294 131.591C204.832 131.591 233.87 114.512 255.401 114.512C276.933 114.512 318.774 120.899 339.471 114.512C360.167 108.124 375.513 81.7247 394.808 81.7247C394.682 87.3518 394.808 165.55 394.808 165.55L3.23546 164.766C3.23546 164.766 3.14965 106.983 3.23546 100.527Z" fill="url(#paint1_linear_10311_12)"/>
<circle cx="392" cy="80.9078" r="4" fill="#0095FF"/>
<circle cx="340.278" cy="113.811" r="4" fill="#0095FF"/>
<circle cx="256.209" cy="113.811" r="4" fill="#0095FF"/>
<circle cx="188.102" cy="131.046" r="4" fill="#0095FF"/>
<circle cx="132.765" cy="131.046" r="4" fill="#0095FF"/>
<circle cx="77.4278" cy="76.2074" r="4" fill="#0095FF"/>
<circle cx="4" cy="99.7097" r="4" fill="#0095FF"/>
<defs>
<linearGradient id="paint0_linear_10311_12" x1="3.10912" y1="1.80627" x2="3.10912" y2="167" gradientUnits="userSpaceOnUse">
<stop stop-color="#00E096" stop-opacity="0.326568"/>
<stop offset="1" stop-color="white" stop-opacity="0.01"/>
</linearGradient>
<linearGradient id="paint1_linear_10311_12" x1="3.19256" y1="76.9078" x2="3.19256" y2="165.55" gradientUnits="userSpaceOnUse">
<stop stop-color="#009DFF" stop-opacity="0.31728"/>
<stop offset="1" stop-color="#0095FF" stop-opacity="0.01"/>
</linearGradient>
</defs>
</svg>
