<svg width="334" height="262" viewBox="0 0 334 262" fill="none" xmlns="http://www.w3.org/2000/svg">
<path d="M12.36 151.18C12.36 151.76 12.07 152.26 11.35 152.26C10.63 152.26 10.33 151.75 10.32 151.11H9.41C9.41 152.33 10.19 153.07 11.35 153.07C12.5 153.07 13.28 152.34 13.28 151.18V146.03H12.36V151.18ZM14.7327 150.24C14.7327 151.94 15.8627 153.09 17.3227 153.09C18.3327 153.09 19.0427 152.57 19.3727 151.98V153H20.2927V147.52H19.3727V148.52C19.0527 147.95 18.3527 147.43 17.3327 147.43C15.8627 147.43 14.7327 148.53 14.7327 150.24ZM19.3727 150.25C19.3727 151.54 18.5127 152.29 17.5127 152.29C16.5127 152.29 15.6627 151.53 15.6627 150.24C15.6627 148.95 16.5127 148.22 17.5127 148.22C18.5127 148.22 19.3727 148.98 19.3727 150.25ZM25.8405 153H26.7405V149.77C26.7405 148.2 25.7705 147.42 24.5005 147.42C23.7605 147.42 23.1005 147.73 22.7405 148.3V147.52H21.8305V153H22.7405V149.97C22.7405 148.79 23.3805 148.21 24.3105 148.21C25.2305 148.21 25.8405 148.78 25.8405 149.9V153Z" fill="#7B91B0"/>
<rect x="20" y="30.9084" width="16" height="102.092" rx="4" fill="#FFCF00"/>
<rect y="54.3239" width="16" height="78.6761" rx="4" fill="#4AB58E"/>
<path d="M59.77 153H60.68V149.86H63.14V149.12H60.68V146.77H63.71V146.03H59.77V153ZM67.1391 148.2C68.0791 148.2 68.8791 148.79 68.8691 149.86H65.4091C65.5091 148.79 66.2491 148.2 67.1391 148.2ZM69.6991 151.31H68.7191C68.5191 151.9 67.9991 152.32 67.1791 152.32C66.2491 152.32 65.4691 151.71 65.3991 150.6H69.7791C69.7991 150.41 69.8091 150.25 69.8091 150.05C69.8091 148.55 68.7691 147.43 67.1791 147.43C65.5791 147.43 64.4691 148.52 64.4691 150.25C64.4691 151.99 65.6191 153.09 67.1791 153.09C68.5391 153.09 69.4191 152.31 69.6991 151.31ZM71.9202 148.54V145.6H71.0102V153H71.9202V151.99C72.2602 152.59 72.9702 153.09 73.9702 153.09C75.4402 153.09 76.5702 151.94 76.5702 150.24C76.5702 148.53 75.4502 147.43 73.9702 147.43C73.0002 147.43 72.2702 147.93 71.9202 148.54ZM75.6402 150.24C75.6402 151.53 74.7902 152.29 73.7802 152.29C72.7902 152.29 71.9202 151.54 71.9202 150.25C71.9202 148.98 72.7902 148.22 73.7802 148.22C74.7902 148.22 75.6402 148.95 75.6402 150.24Z" fill="#7B91B0"/>
<rect x="70" y="40.2747" width="16" height="92.7253" rx="4" fill="#FFCF00"/>
<rect x="50" y="64.6268" width="16" height="68.3732" rx="4" fill="#4AB58E"/>
<path d="M109.77 153H110.68V147.83L112.99 153H113.63L115.93 147.84V153H116.84V146.08H115.87L113.31 151.8L110.75 146.08H109.77V153ZM118.043 150.24C118.043 151.94 119.173 153.09 120.633 153.09C121.643 153.09 122.353 152.57 122.683 151.98V153H123.603V147.52H122.683V148.52C122.363 147.95 121.663 147.43 120.643 147.43C119.173 147.43 118.043 148.53 118.043 150.24ZM122.683 150.25C122.683 151.54 121.823 152.29 120.823 152.29C119.823 152.29 118.973 151.53 118.973 150.24C118.973 148.95 119.823 148.22 120.823 148.22C121.823 148.22 122.683 148.98 122.683 150.25ZM126.051 150.02C126.051 148.75 126.711 148.36 127.581 148.36H127.821V147.42C126.951 147.42 126.361 147.8 126.051 148.41V147.52H125.141V153H126.051V150.02Z" fill="#7B91B0"/>
<rect x="120" y="16.8592" width="16" height="116.141" rx="4" fill="#FFCF00"/>
<rect x="100" y="74.9296" width="16" height="58.0704" rx="4" fill="#4AB58E"/>
<path d="M164.45 153H165.41L162.9 146.07H161.85L159.33 153H160.29L160.85 151.45H163.89L164.45 153ZM163.63 150.71H161.11L162.37 147.19L163.63 150.71ZM167.418 148.53V147.52H166.508V155.6H167.418V151.99C167.758 152.55 168.468 153.09 169.468 153.09C170.938 153.09 172.068 151.94 172.068 150.24C172.068 148.53 170.938 147.43 169.468 147.43C168.468 147.43 167.748 147.95 167.418 148.53ZM171.138 150.24C171.138 151.53 170.288 152.29 169.278 152.29C168.288 152.29 167.418 151.54 167.418 150.25C167.418 148.98 168.288 148.22 169.278 148.22C170.288 148.22 171.138 148.95 171.138 150.24ZM174.176 150.02C174.176 148.75 174.836 148.36 175.706 148.36H175.946V147.42C175.076 147.42 174.486 147.8 174.176 148.41V147.52H173.266V153H174.176V150.02Z" fill="#7B91B0"/>
<rect x="168" y="40.2747" width="16" height="92.7253" rx="4" fill="#FFCF00"/>
<rect x="150" y="54.324" width="16" height="78.6761" rx="4" fill="#4AB58E"/>
<path d="M206.77 153H207.68V147.83L209.99 153H210.63L212.93 147.84V153H213.84V146.08H212.87L210.31 151.8L207.75 146.08H206.77V153ZM215.043 150.24C215.043 151.94 216.173 153.09 217.633 153.09C218.643 153.09 219.353 152.57 219.683 151.98V153H220.603V147.52H219.683V148.52C219.363 147.95 218.663 147.43 217.643 147.43C216.173 147.43 215.043 148.53 215.043 150.24ZM219.683 150.25C219.683 151.54 218.823 152.29 217.823 152.29C216.823 152.29 215.973 151.53 215.973 150.24C215.973 148.95 216.823 148.22 217.823 148.22C218.823 148.22 219.683 148.98 219.683 150.25ZM224.221 151.96L222.501 147.52H221.491L223.701 152.94L222.621 155.58H223.561L226.861 147.52H225.921L224.221 151.96Z" fill="#7B91B0"/>
<rect x="218" width="16" height="133" rx="4" fill="#FFCF00"/>
<rect x="198" y="37.4648" width="16" height="95.5352" rx="4" fill="#4AB58E"/>
<path d="M257.36 151.18C257.36 151.76 257.07 152.26 256.35 152.26C255.63 152.26 255.33 151.75 255.32 151.11H254.41C254.41 152.33 255.19 153.07 256.35 153.07C257.5 153.07 258.28 152.34 258.28 151.18V146.03H257.36V151.18ZM264.933 147.52H264.023V150.53C264.023 151.71 263.393 152.29 262.453 152.29C261.533 152.29 260.923 151.72 260.923 150.61V147.52H260.023V150.73C260.023 152.3 261.013 153.08 262.273 153.08C263.003 153.08 263.673 152.76 264.023 152.19V153H264.933V147.52ZM270.479 153H271.379V149.77C271.379 148.2 270.409 147.42 269.139 147.42C268.399 147.42 267.739 147.73 267.379 148.3V147.52H266.469V153H267.379V149.97C267.379 148.79 268.019 148.21 268.949 148.21C269.869 148.21 270.479 148.78 270.479 149.9V153ZM275.196 148.2C276.136 148.2 276.936 148.79 276.926 149.86H273.466C273.566 148.79 274.306 148.2 275.196 148.2ZM277.756 151.31H276.776C276.576 151.9 276.056 152.32 275.236 152.32C274.306 152.32 273.526 151.71 273.456 150.6H277.836C277.856 150.41 277.866 150.25 277.866 150.05C277.866 148.55 276.826 147.43 275.236 147.43C273.636 147.43 272.526 148.52 272.526 150.25C272.526 151.99 273.676 153.09 275.236 153.09C276.596 153.09 277.476 152.31 277.756 151.31Z" fill="#7B91B0"/>
<rect x="268" width="16" height="133" rx="4" fill="#FFCF00"/>
<rect x="248" y="37.4648" width="16" height="95.5352" rx="4" fill="#4AB58E"/>
<path d="M309.36 151.18C309.36 151.76 309.07 152.26 308.35 152.26C307.63 152.26 307.33 151.75 307.32 151.11H306.41C306.41 152.33 307.19 153.07 308.35 153.07C309.5 153.07 310.28 152.34 310.28 151.18V146.03H309.36V151.18ZM316.933 147.52H316.023V150.53C316.023 151.71 315.393 152.29 314.453 152.29C313.533 152.29 312.923 151.72 312.923 150.61V147.52H312.023V150.73C312.023 152.3 313.013 153.08 314.273 153.08C315.003 153.08 315.673 152.76 316.023 152.19V153H316.933V147.52ZM318.469 153H319.379V145.6H318.469V153ZM323.01 151.96L321.29 147.52H320.28L322.49 152.94L321.41 155.58H322.35L325.65 147.52H324.71L323.01 151.96Z" fill="#7B91B0"/>
<rect x="318" width="16" height="133" rx="4" fill="#FFCF00"/>
<rect x="298" y="37.4648" width="16" height="95.5352" rx="4" fill="#4AB58E"/>
<path d="M199.937 192.665C198.915 193.043 198.229 193.953 198.229 195.185C198.229 197.047 199.741 198.251 201.841 198.251C203.955 198.251 205.467 197.047 205.467 195.185C205.467 193.967 204.781 193.057 203.745 192.665C204.571 192.259 205.201 191.461 205.201 190.369C205.201 188.899 204.095 187.611 201.841 187.611C199.587 187.611 198.481 188.885 198.481 190.369C198.481 191.503 199.069 192.231 199.937 192.665ZM201.841 192.161C200.777 192.161 200.021 191.503 200.021 190.579C200.021 189.501 200.749 188.941 201.841 188.941C202.961 188.941 203.675 189.515 203.675 190.565C203.675 191.489 202.905 192.161 201.841 192.161ZM201.841 193.365C203.045 193.365 203.899 193.981 203.899 195.129C203.899 196.151 203.129 196.921 201.841 196.921C200.539 196.921 199.755 196.165 199.755 195.129C199.755 193.939 200.665 193.365 201.841 193.365ZM209.005 197.075C209.005 196.501 208.557 196.053 207.997 196.053C207.423 196.053 206.975 196.501 206.975 197.075C206.975 197.649 207.423 198.097 207.997 198.097C208.557 198.097 209.005 197.649 209.005 197.075ZM212.242 192.665C211.22 193.043 210.534 193.953 210.534 195.185C210.534 197.047 212.046 198.251 214.146 198.251C216.26 198.251 217.772 197.047 217.772 195.185C217.772 193.967 217.086 193.057 216.05 192.665C216.876 192.259 217.506 191.461 217.506 190.369C217.506 188.899 216.4 187.611 214.146 187.611C211.892 187.611 210.786 188.885 210.786 190.369C210.786 191.503 211.374 192.231 212.242 192.665ZM214.146 192.161C213.082 192.161 212.326 191.503 212.326 190.579C212.326 189.501 213.054 188.941 214.146 188.941C215.266 188.941 215.98 189.515 215.98 190.565C215.98 191.489 215.21 192.161 214.146 192.161ZM214.146 193.365C215.35 193.365 216.204 193.981 216.204 195.129C216.204 196.151 215.434 196.921 214.146 196.921C212.844 196.921 212.06 196.165 212.06 195.129C212.06 193.939 212.97 193.365 214.146 193.365ZM219.321 197.859H226.125V196.529H221.687C223.325 195.031 225.845 193.141 225.845 190.663C225.845 188.829 224.669 187.583 222.597 187.583C220.791 187.583 219.363 188.661 219.307 190.873H220.847C220.889 189.725 221.491 188.941 222.611 188.941C223.801 188.941 224.263 189.669 224.263 190.733C224.263 192.735 221.729 194.583 219.321 196.697V197.859ZM227.5 190.313H229.054C229.152 189.599 229.67 188.927 230.79 188.927C231.882 188.927 232.456 189.515 232.456 190.397C232.456 191.489 231.574 191.909 230.132 191.923H229.754V193.239H230.118C231.784 193.239 232.652 193.701 232.652 195.045C232.652 195.997 232.064 196.725 230.874 196.725C229.67 196.725 228.97 195.997 228.9 195.045H227.36C227.458 197.047 228.956 198.055 230.888 198.055C233.016 198.055 234.164 196.823 234.164 195.199C234.164 193.785 233.478 192.903 232.414 192.581V192.525C233.212 192.259 233.982 191.433 233.982 190.215C233.982 188.731 232.876 187.555 230.846 187.555C228.984 187.555 227.611 188.549 227.5 190.313Z" fill="#27AE60"/>
<path d="M51.268 182.228C51.268 182.984 50.848 183.476 49.912 183.476H48.508V181.016H49.912C50.848 181.016 51.268 181.484 51.268 182.228ZM46.828 179.624V188H48.508V184.736H49.3L51.148 188H53.092L51.088 184.604C52.432 184.244 52.996 183.212 52.996 182.192C52.996 180.788 51.988 179.624 49.972 179.624H46.828ZM57.3715 182.624C58.2355 182.624 58.9315 183.176 58.9555 184.052H55.7995C55.9315 183.14 56.5675 182.624 57.3715 182.624ZM60.5275 185.912H58.7155C58.4995 186.356 58.1035 186.716 57.3835 186.716C56.5435 186.716 55.8715 186.164 55.7875 185.18H60.6475C60.6835 184.964 60.6955 184.748 60.6955 184.532C60.6955 182.552 59.3395 181.244 57.4195 181.244C55.4515 181.244 54.0835 182.576 54.0835 184.676C54.0835 186.764 55.4875 188.108 57.4195 188.108C59.0635 188.108 60.1675 187.136 60.5275 185.912ZM61.4897 184.652C61.4897 186.728 62.8338 188.108 64.5138 188.108C65.5698 188.108 66.3258 187.604 66.7218 187.028V188H68.4138V181.352H66.7218V182.3C66.3258 181.748 65.5938 181.244 64.5258 181.244C62.8338 181.244 61.4897 182.576 61.4897 184.652ZM66.7218 184.676C66.7218 185.936 65.8818 186.632 64.9578 186.632C64.0578 186.632 63.2058 185.912 63.2058 184.652C63.2058 183.392 64.0578 182.72 64.9578 182.72C65.8818 182.72 66.7218 183.416 66.7218 184.676ZM70.0546 188H71.7346V179.12H70.0546V188ZM73.3944 188H75.0744V181.352H73.3944V188ZM74.2464 180.56C74.8344 180.56 75.2784 180.128 75.2784 179.576C75.2784 179.024 74.8344 178.592 74.2464 178.592C73.6464 178.592 73.2144 179.024 73.2144 179.576C73.2144 180.128 73.6464 180.56 74.2464 180.56ZM76.9983 185.936C76.9983 187.46 77.8503 188 79.1223 188H80.1783V186.584H79.3983C78.8703 186.584 78.6903 186.392 78.6903 185.948V182.732H80.1783V181.352H78.6903V179.708H76.9983V181.352H76.2063V182.732H76.9983V185.936ZM84.2186 185.996L82.5026 181.352H80.6186L83.2826 187.832L81.8426 191.144H83.6306L87.7466 181.352H85.9586L84.2186 185.996ZM97.3676 185.576C97.3676 182.624 93.0716 183.56 93.0716 181.88C93.0716 181.196 93.5636 180.872 94.2236 180.896C94.9436 180.908 95.3876 181.34 95.4236 181.892H97.2716C97.1636 180.38 95.9876 179.504 94.2716 179.504C92.5436 179.504 91.3196 180.416 91.3196 181.928C91.3076 184.964 95.6276 183.872 95.6276 185.684C95.6276 186.284 95.1596 186.704 94.3676 186.704C93.5876 186.704 93.1436 186.26 93.0956 185.588H91.2956C91.3196 187.172 92.6636 188.084 94.4036 188.084C96.3116 188.084 97.3676 186.896 97.3676 185.576ZM98.3921 184.652C98.3921 186.728 99.7361 188.108 101.416 188.108C102.472 188.108 103.228 187.604 103.624 187.028V188H105.316V181.352H103.624V182.3C103.228 181.748 102.496 181.244 101.428 181.244C99.7361 181.244 98.3921 182.576 98.3921 184.652ZM103.624 184.676C103.624 185.936 102.784 186.632 101.86 186.632C100.96 186.632 100.108 185.912 100.108 184.652C100.108 183.392 100.96 182.72 101.86 182.72C102.784 182.72 103.624 183.416 103.624 184.676ZM106.957 188H108.637V179.12H106.957V188ZM113.153 182.624C114.017 182.624 114.713 183.176 114.737 184.052H111.581C111.713 183.14 112.349 182.624 113.153 182.624ZM116.309 185.912H114.497C114.281 186.356 113.885 186.716 113.165 186.716C112.325 186.716 111.653 186.164 111.569 185.18H116.429C116.465 184.964 116.477 184.748 116.477 184.532C116.477 182.552 115.121 181.244 113.201 181.244C111.233 181.244 109.865 182.576 109.865 184.676C109.865 186.764 111.269 188.108 113.201 188.108C114.845 188.108 115.949 187.136 116.309 185.912ZM122.863 186.104C122.815 183.668 119.131 184.424 119.131 183.212C119.131 182.828 119.455 182.576 120.079 182.576C120.739 182.576 121.147 182.924 121.195 183.44H122.803C122.707 182.12 121.735 181.244 120.127 181.244C118.483 181.244 117.499 182.132 117.499 183.236C117.499 185.672 121.255 184.916 121.255 186.104C121.255 186.488 120.895 186.788 120.235 186.788C119.563 186.788 119.095 186.404 119.035 185.9H117.343C117.415 187.136 118.579 188.108 120.247 188.108C121.867 188.108 122.863 187.244 122.863 186.104Z" fill="#151D48"/>
<path d="M49.93 198.95C47.97 198.95 46.43 200.42 46.43 202.51C46.43 204.6 47.97 206.06 49.93 206.06C51.82 206.06 53.19 204.67 53.35 202.94V202.24H49.6V202.98H52.38C52.24 204.36 51.3 205.24 49.93 205.24C48.46 205.24 47.36 204.18 47.36 202.51C47.36 200.83 48.46 199.77 49.93 199.77C50.91 199.77 51.67 200.24 52.05 201.05H53.14C52.62 199.71 51.4 198.95 49.93 198.95ZM54.5532 206H55.4632V198.6H54.5532V206ZM62.2141 203.25C62.2141 201.52 61.0041 200.43 59.4441 200.43C57.8941 200.43 56.6741 201.52 56.6741 203.25C56.6741 204.99 57.8541 206.09 59.4041 206.09C60.9641 206.09 62.2141 204.99 62.2141 203.25ZM57.6041 203.25C57.6041 201.87 58.4741 201.22 59.4341 201.22C60.3741 201.22 61.2841 201.87 61.2841 203.25C61.2841 204.64 60.3541 205.29 59.4041 205.29C58.4541 205.29 57.6041 204.64 57.6041 203.25ZM64.3206 201.54V198.6H63.4106V206H64.3206V204.99C64.6606 205.59 65.3706 206.09 66.3706 206.09C67.8406 206.09 68.9706 204.94 68.9706 203.24C68.9706 201.53 67.8506 200.43 66.3706 200.43C65.4006 200.43 64.6706 200.93 64.3206 201.54ZM68.0406 203.24C68.0406 204.53 67.1906 205.29 66.1806 205.29C65.1906 205.29 64.3206 204.54 64.3206 203.25C64.3206 201.98 65.1906 201.22 66.1806 201.22C67.1906 201.22 68.0406 201.95 68.0406 203.24ZM69.8284 203.24C69.8284 204.94 70.9584 206.09 72.4184 206.09C73.4284 206.09 74.1384 205.57 74.4684 204.98V206H75.3884V200.52H74.4684V201.52C74.1484 200.95 73.4484 200.43 72.4284 200.43C70.9584 200.43 69.8284 201.53 69.8284 203.24ZM74.4684 203.25C74.4684 204.54 73.6084 205.29 72.6084 205.29C71.6084 205.29 70.7584 204.53 70.7584 203.24C70.7584 201.95 71.6084 201.22 72.6084 201.22C73.6084 201.22 74.4684 201.98 74.4684 203.25ZM76.9263 206H77.8363V198.6H76.9263V206Z" fill="#737791"/>
<g clip-path="url(#clip0_10312_13)">
<rect y="175" width="36" height="36" rx="6" fill="#E2FFF3"/>
<mask id="mask0_10312_13" style="mask-type:luminance" maskUnits="userSpaceOnUse" x="3" y="178" width="30" height="30">
<rect x="3.59961" y="178.6" width="28.8" height="28.8" fill="white"/>
</mask>
<g mask="url(#mask0_10312_13)">
<mask id="mask1_10312_13" style="mask-type:luminance" maskUnits="userSpaceOnUse" x="9" y="184" width="18" height="18">
<rect x="9.35938" y="184.36" width="17.28" height="17.28" fill="white"/>
</mask>
<g mask="url(#mask1_10312_13)">
<path fill-rule="evenodd" clip-rule="evenodd" d="M20.7599 199.84C22.9676 199.84 24.6614 199.043 24.1803 195.833L23.6201 191.483C23.3235 189.882 22.3021 189.269 21.4057 189.269H14.0772C13.1678 189.269 12.2056 189.928 11.8629 191.483L11.3027 195.833C10.8941 198.68 12.5417 199.84 14.7495 199.84H20.7599Z" stroke="#4AB58E" stroke-width="1.5" stroke-linecap="round" stroke-linejoin="round"/>
<path d="M14.6504 189.111C14.6504 187.393 16.0431 186 17.761 186C18.5883 185.997 19.3829 186.323 19.9691 186.907C20.5554 187.49 20.8849 188.284 20.8849 189.111" stroke="#4AB58E" stroke-width="1.5" stroke-linecap="round" stroke-linejoin="round"/>
<path d="M15.626 192.354H15.6589" stroke="#4AB58E" stroke-width="1.5" stroke-linecap="round" stroke-linejoin="round"/>
<path d="M19.8242 192.354H19.8572" stroke="#4AB58E" stroke-width="1.5" stroke-linecap="round" stroke-linejoin="round"/>
</g>
</g>
</g>
<path d="M199.526 250.999H201.136V240.793H198.224V242.249H199.526V250.999ZM203.202 250.859H210.006V249.529H205.568C207.206 248.031 209.726 246.141 209.726 243.663C209.726 241.829 208.55 240.583 206.478 240.583C204.672 240.583 203.244 241.661 203.188 243.873H204.728C204.77 242.725 205.372 241.941 206.492 241.941C207.682 241.941 208.144 242.669 208.144 243.733C208.144 245.735 205.61 247.583 203.202 249.697V250.859ZM213.27 250.075C213.27 249.501 212.822 249.053 212.262 249.053C211.688 249.053 211.24 249.501 211.24 250.075C211.24 250.649 211.688 251.097 212.262 251.097C212.822 251.097 213.27 250.649 213.27 250.075ZM215.877 250.999H217.487V240.793H214.575V242.249H215.877V250.999ZM219.554 250.859H226.358V249.529H221.92C223.558 248.031 226.078 246.141 226.078 243.663C226.078 241.829 224.902 240.583 222.83 240.583C221.024 240.583 219.596 241.661 219.54 243.873H221.08C221.122 242.725 221.724 241.941 222.844 241.941C224.034 241.941 224.496 242.669 224.496 243.733C224.496 245.735 221.962 247.583 219.554 249.697V250.859ZM227.634 250.859H234.438V249.529H230C231.638 248.031 234.158 246.141 234.158 243.663C234.158 241.829 232.982 240.583 230.91 240.583C229.104 240.583 227.676 241.661 227.62 243.873H229.16C229.202 242.725 229.804 241.941 230.924 241.941C232.114 241.941 232.576 242.669 232.576 243.733C232.576 245.735 230.042 247.583 227.634 249.697V250.859Z" fill="#FFA412"/>
<path d="M46.384 231.98H48.616V239H50.296V231.98H52.528V230.624H46.384V231.98ZM53.3218 235.652C53.3218 237.728 54.6658 239.108 56.3458 239.108C57.4018 239.108 58.1578 238.604 58.5538 238.028V239H60.2458V232.352H58.5538V233.3C58.1578 232.748 57.4258 232.244 56.3578 232.244C54.6658 232.244 53.3218 233.576 53.3218 235.652ZM58.5538 235.676C58.5538 236.936 57.7138 237.632 56.7898 237.632C55.8898 237.632 55.0378 236.912 55.0378 235.652C55.0378 234.392 55.8898 233.72 56.7898 233.72C57.7138 233.72 58.5538 234.416 58.5538 235.676ZM63.5666 235.688C63.5666 234.404 64.1666 234.02 65.1626 234.02H65.6066V232.256C64.6826 232.256 63.9866 232.7 63.5666 233.384V232.352H61.8866V239H63.5666V235.688ZM66.3062 235.652C66.3062 237.728 67.6502 239.108 69.3422 239.108C70.3862 239.108 71.1422 238.592 71.5382 238.016V239.048C71.5382 240.284 70.8182 240.812 69.8942 240.812C69.0542 240.812 68.4302 240.416 68.2622 239.816H66.5942C66.7622 241.34 68.0702 242.276 69.9422 242.276C72.1262 242.276 73.2302 240.848 73.2302 239.048V232.352H71.5382V233.3C71.1422 232.724 70.3862 232.244 69.3422 232.244C67.6502 232.244 66.3062 233.576 66.3062 235.652ZM71.5382 235.676C71.5382 236.936 70.6982 237.632 69.7742 237.632C68.8742 237.632 68.0222 236.912 68.0222 235.652C68.0222 234.392 68.8742 233.72 69.7742 233.72C70.6982 233.72 71.5382 234.416 71.5382 235.676ZM77.727 233.624C78.591 233.624 79.287 234.176 79.311 235.052H76.155C76.287 234.14 76.923 233.624 77.727 233.624ZM80.883 236.912H79.071C78.855 237.356 78.459 237.716 77.739 237.716C76.899 237.716 76.227 237.164 76.143 236.18H81.003C81.039 235.964 81.051 235.748 81.051 235.532C81.051 233.552 79.695 232.244 77.775 232.244C75.807 232.244 74.439 233.576 74.439 235.676C74.439 237.764 75.843 239.108 77.775 239.108C79.419 239.108 80.523 238.136 80.883 236.912ZM82.5412 236.936C82.5412 238.46 83.3932 239 84.6652 239H85.7212V237.584H84.9412C84.4132 237.584 84.2332 237.392 84.2332 236.948V233.732H85.7212V232.352H84.2332V230.708H82.5412V232.352H81.7492V233.732H82.5412V236.936ZM95.6449 236.576C95.6449 233.624 91.3489 234.56 91.3489 232.88C91.3489 232.196 91.8409 231.872 92.5009 231.896C93.2209 231.908 93.6649 232.34 93.7009 232.892H95.5489C95.4409 231.38 94.2649 230.504 92.5489 230.504C90.8209 230.504 89.5969 231.416 89.5969 232.928C89.5849 235.964 93.9049 234.872 93.9049 236.684C93.9049 237.284 93.4369 237.704 92.6449 237.704C91.8649 237.704 91.4209 237.26 91.3729 236.588H89.5729C89.5969 238.172 90.9409 239.084 92.6809 239.084C94.5889 239.084 95.6449 237.896 95.6449 236.576ZM96.6694 235.652C96.6694 237.728 98.0134 239.108 99.6934 239.108C100.749 239.108 101.505 238.604 101.901 238.028V239H103.593V232.352H101.901V233.3C101.505 232.748 100.773 232.244 99.7054 232.244C98.0134 232.244 96.6694 233.576 96.6694 235.652ZM101.901 235.676C101.901 236.936 101.061 237.632 100.137 237.632C99.2374 237.632 98.3854 236.912 98.3854 235.652C98.3854 234.392 99.2374 233.72 100.137 233.72C101.061 233.72 101.901 234.416 101.901 235.676ZM105.234 239H106.914V230.12H105.234V239ZM111.43 233.624C112.294 233.624 112.99 234.176 113.014 235.052H109.858C109.99 234.14 110.626 233.624 111.43 233.624ZM114.586 236.912H112.774C112.558 237.356 112.162 237.716 111.442 237.716C110.602 237.716 109.93 237.164 109.846 236.18H114.706C114.742 235.964 114.754 235.748 114.754 235.532C114.754 233.552 113.398 232.244 111.478 232.244C109.51 232.244 108.142 233.576 108.142 235.676C108.142 237.764 109.546 239.108 111.478 239.108C113.122 239.108 114.226 238.136 114.586 236.912ZM121.14 237.104C121.092 234.668 117.408 235.424 117.408 234.212C117.408 233.828 117.732 233.576 118.356 233.576C119.016 233.576 119.424 233.924 119.472 234.44H121.08C120.984 233.12 120.012 232.244 118.404 232.244C116.76 232.244 115.776 233.132 115.776 234.236C115.776 236.672 119.532 235.916 119.532 237.104C119.532 237.488 119.172 237.788 118.512 237.788C117.84 237.788 117.372 237.404 117.312 236.9H115.62C115.692 238.136 116.856 239.108 118.524 239.108C120.144 239.108 121.14 238.244 121.14 237.104Z" fill="#151D48"/>
<path d="M46.43 253.51C46.43 255.6 47.96 257.06 49.91 257.06C51.42 257.06 52.62 256.31 53.14 254.97H52.05C51.67 255.8 50.93 256.27 49.91 256.27C48.45 256.27 47.36 255.21 47.36 253.51C47.36 251.8 48.45 250.74 49.91 250.74C50.93 250.74 51.67 251.21 52.05 252.05H53.14C52.62 250.7 51.42 249.94 49.91 249.94C47.96 249.94 46.43 251.42 46.43 253.51ZM59.6946 254.25C59.6946 252.52 58.4846 251.43 56.9246 251.43C55.3746 251.43 54.1546 252.52 54.1546 254.25C54.1546 255.99 55.3346 257.09 56.8846 257.09C58.4446 257.09 59.6946 255.99 59.6946 254.25ZM55.0846 254.25C55.0846 252.87 55.9546 252.22 56.9146 252.22C57.8546 252.22 58.7646 252.87 58.7646 254.25C58.7646 255.64 57.8346 256.29 56.8846 256.29C55.9346 256.29 55.0846 255.64 55.0846 254.25ZM68.8011 257H69.7011V253.77C69.7011 252.2 68.7311 251.42 67.4811 251.42C66.6411 251.42 65.8611 251.85 65.5411 252.64C65.1811 251.82 64.4311 251.42 63.5311 251.42C62.8111 251.42 62.1611 251.73 61.8011 252.31V251.52H60.8911V257H61.8011V253.98C61.8011 252.8 62.4311 252.21 63.3511 252.21C64.2511 252.21 64.8511 252.78 64.8511 253.9V257H65.7511V253.98C65.7511 252.8 66.3811 252.21 67.3011 252.21C68.2011 252.21 68.8011 252.78 68.8011 253.9V257ZM79.1038 257H80.0038V253.77C80.0038 252.2 79.0338 251.42 77.7838 251.42C76.9438 251.42 76.1638 251.85 75.8438 252.64C75.4838 251.82 74.7338 251.42 73.8338 251.42C73.1138 251.42 72.4638 251.73 72.1038 252.31V251.52H71.1938V257H72.1038V253.98C72.1038 252.8 72.7338 252.21 73.6538 252.21C74.5538 252.21 75.1538 252.78 75.1538 253.9V257H76.0538V253.98C76.0538 252.8 76.6838 252.21 77.6038 252.21C78.5038 252.21 79.1038 252.78 79.1038 253.9V257ZM83.8266 252.2C84.7666 252.2 85.5666 252.79 85.5566 253.86H82.0966C82.1966 252.79 82.9366 252.2 83.8266 252.2ZM86.3866 255.31H85.4066C85.2066 255.9 84.6866 256.32 83.8666 256.32C82.9366 256.32 82.1566 255.71 82.0866 254.6H86.4666C86.4866 254.41 86.4966 254.25 86.4966 254.05C86.4966 252.55 85.4566 251.43 83.8666 251.43C82.2666 251.43 81.1566 252.52 81.1566 254.25C81.1566 255.99 82.3066 257.09 83.8666 257.09C85.2266 257.09 86.1066 256.31 86.3866 255.31ZM88.6077 254.02C88.6077 252.75 89.2677 252.36 90.1377 252.36H90.3777V251.42C89.5077 251.42 88.9177 251.8 88.6077 252.41V251.52H87.6977V257H88.6077V254.02ZM91.0882 254.25C91.0882 255.99 92.1982 257.09 93.7582 257.09C95.1182 257.09 96.0082 256.33 96.2882 255.24H95.3082C95.1082 255.93 94.5682 256.32 93.7582 256.32C92.7582 256.32 92.0182 255.61 92.0182 254.25C92.0182 252.91 92.7582 252.2 93.7582 252.2C94.5682 252.2 95.1182 252.62 95.3082 253.28H96.2882C96.0082 252.13 95.1182 251.43 93.7582 251.43C92.1982 251.43 91.0882 252.53 91.0882 254.25ZM97.5024 257H98.4124V251.52H97.5024V257ZM97.9724 250.63C98.3024 250.63 98.5724 250.36 98.5724 250.01C98.5724 249.66 98.3024 249.39 97.9724 249.39C97.6224 249.39 97.3524 249.66 97.3524 250.01C97.3524 250.36 97.6224 250.63 97.9724 250.63ZM99.6234 254.24C99.6234 255.94 100.753 257.09 102.213 257.09C103.223 257.09 103.933 256.57 104.263 255.98V257H105.183V251.52H104.263V252.52C103.943 251.95 103.243 251.43 102.223 251.43C100.753 251.43 99.6234 252.53 99.6234 254.24ZM104.263 254.25C104.263 255.54 103.403 256.29 102.403 256.29C101.403 256.29 100.553 255.53 100.553 254.24C100.553 252.95 101.403 252.22 102.403 252.22C103.403 252.22 104.263 252.98 104.263 254.25ZM106.721 257H107.631V249.6H106.721V257Z" fill="#737791"/>
<g clip-path="url(#clip1_10312_13)">
<rect y="226" width="36" height="36" rx="6" fill="#FFF4DE"/>
<mask id="mask2_10312_13" style="mask-type:luminance" maskUnits="userSpaceOnUse" x="9" y="235" width="18" height="18">
<rect x="9.36035" y="235.36" width="17.28" height="17.28" fill="white"/>
</mask>
<g mask="url(#mask2_10312_13)">
<path fill-rule="evenodd" clip-rule="evenodd" d="M10.8015 240.503C10.8016 238.855 12.137 237.52 13.7845 237.52H22.2171C23.8647 237.52 25.1991 238.855 25.1993 240.503M25.1993 240.503L25.2008 242.449C25.2009 242.592 25.144 242.729 25.0428 242.831C24.9415 242.932 24.8041 242.989 24.6608 242.989C24.0659 242.989 23.588 243.467 23.588 244.061C23.588 244.655 24.0661 245.133 24.6608 245.133C24.959 245.133 25.2008 245.375 25.2008 245.673V247.617C25.2008 249.265 23.8662 250.6 22.2178 250.6H13.783C12.1353 250.6 10.8008 249.265 10.8008 247.617V245.673C10.8008 245.375 11.0425 245.133 11.3408 245.133C11.9346 245.133 12.4129 244.655 12.4129 244.061C12.4129 243.495 11.9633 243.052 11.3408 243.052C11.1975 243.052 11.0602 242.995 10.9589 242.894C10.8576 242.792 10.8007 242.655 10.8008 242.512L10.8015 240.503C10.8015 240.503 10.8015 240.503 10.8015 240.503M11.8815 240.503L11.881 242.036C12.7936 242.259 13.4929 243.037 13.4929 244.061C13.4929 245.065 12.8089 245.906 11.8808 246.145V247.617C11.8808 248.669 12.7322 249.52 13.783 249.52H22.2178C23.2695 249.52 24.1208 248.668 24.1208 247.617V246.145C23.1921 245.906 22.508 245.065 22.508 244.061C22.508 243.057 23.192 242.216 24.1204 241.977L24.1193 240.503C24.1193 239.452 23.2679 238.6 22.2171 238.6H13.7845C12.7334 238.6 11.8815 239.452 11.8815 240.503ZM10.8015 240.503L25.1993 240.503L10.8015 240.503Z" fill="#FFA800"/>
<path fill-rule="evenodd" clip-rule="evenodd" d="M18.628 241.458L19.129 242.472L20.2508 242.635C20.8212 242.72 21.0536 243.422 20.6375 243.828L20.6367 243.829L19.8259 244.618L20.0176 245.734C20.1162 246.31 19.5117 246.738 19.0031 246.473L19.0015 246.472L18 245.945L16.9969 246.473C16.4883 246.738 15.8838 246.31 15.9824 245.734L16.1741 244.618L15.3639 243.829L15.3632 243.828C14.9472 243.422 15.1796 242.72 15.75 242.635L15.7515 242.635L16.871 242.472L17.3725 241.456L17.3731 241.455C17.6294 240.94 18.3701 240.934 18.6277 241.457C18.6278 241.457 18.6279 241.457 18.628 241.458ZM17.7138 243.205C17.6351 243.364 17.4832 243.474 17.3074 243.5L16.6693 243.593L17.1311 244.042C17.2586 244.167 17.3167 244.345 17.2866 244.521L17.1772 245.158L17.7487 244.857C17.906 244.774 18.094 244.774 18.2513 244.857L18.8228 245.158L18.7134 244.521C18.6833 244.345 18.7415 244.166 18.869 244.042L19.331 243.593L18.6927 243.5C18.5169 243.474 18.3649 243.364 18.2862 243.205L18 242.625L17.7138 243.205Z" fill="#FFA800"/>
</g>
</g>
<defs>
<clipPath id="clip0_10312_13">
<rect width="36" height="36" fill="white" transform="translate(0 175)"/>
</clipPath>
<clipPath id="clip1_10312_13">
<rect width="36" height="36" fill="white" transform="translate(0 226)"/>
</clipPath>
</defs>
</svg>
