<svg width="368" height="255" viewBox="0 0 368 255" fill="none" xmlns="http://www.w3.org/2000/svg">
<rect y="188" width="368" height="1" fill="#EDF2F6"/>
<path d="M228.798 242.16C228.63 240.802 227.636 239.542 225.648 239.542C223.1 239.542 222.036 241.474 222.036 244.666C222.036 247.914 222.806 250 225.774 250C227.958 250 229.12 248.53 229.12 246.598C229.12 244.47 227.818 243.238 225.984 243.238C224.92 243.238 223.912 243.686 223.408 244.526C223.45 241.852 224.192 240.872 225.634 240.872C226.642 240.872 227.132 241.334 227.328 242.16H228.798ZM225.634 244.582C226.978 244.582 227.594 245.45 227.594 246.668C227.594 247.872 226.866 248.67 225.69 248.67C224.332 248.67 223.59 247.83 223.59 246.57C223.59 245.212 224.584 244.582 225.634 244.582ZM230.794 242.314H232.348C232.446 241.6 232.964 240.928 234.084 240.928C235.176 240.928 235.75 241.516 235.75 242.398C235.75 243.49 234.868 243.91 233.426 243.924H233.048V245.24H233.412C235.078 245.24 235.946 245.702 235.946 247.046C235.946 247.998 235.358 248.726 234.168 248.726C232.964 248.726 232.264 247.998 232.194 247.046H230.654C230.752 249.048 232.25 250.056 234.182 250.056C236.31 250.056 237.458 248.824 237.458 247.2C237.458 245.786 236.772 244.904 235.708 244.582V244.526C236.506 244.26 237.276 243.434 237.276 242.216C237.276 240.732 236.17 239.556 234.14 239.556C232.278 239.556 230.906 240.55 230.794 242.314ZM239.555 239.766V245.66H241.067C241.333 244.904 241.963 244.386 242.901 244.386C244.231 244.386 244.889 245.142 244.889 246.472C244.889 247.732 244.273 248.67 242.901 248.67C241.823 248.67 241.095 248.11 240.885 247.242H239.331C239.569 248.838 240.787 250 242.887 250C245.253 250 246.415 248.46 246.415 246.43C246.415 244.89 245.645 243.028 243.139 243.028C242.229 243.028 241.403 243.448 241.025 243.952V241.166H245.715V239.766H239.555Z" fill="#222B45"/>
<path d="M229.48 222.96C229.48 218.832 223.464 220.624 223.464 217.744C223.464 216.544 224.408 215.92 225.608 215.952C226.968 215.968 227.672 216.816 227.768 217.568H229.368C229.192 215.872 227.8 214.704 225.672 214.704C223.464 214.704 221.976 215.952 221.976 217.792C221.976 221.936 228.008 220.016 228.008 223.024C228.008 224.08 227.176 224.88 225.768 224.88C224.216 224.88 223.56 223.952 223.464 223.024H221.912C221.944 224.864 223.528 226.112 225.768 226.112C228.184 226.112 229.48 224.544 229.48 222.96ZM235.351 218.32C236.855 218.32 238.135 219.264 238.119 220.976H232.583C232.743 219.264 233.927 218.32 235.351 218.32ZM239.447 223.296H237.879C237.559 224.24 236.727 224.912 235.415 224.912C233.927 224.912 232.679 223.936 232.567 222.16H239.575C239.607 221.856 239.623 221.6 239.623 221.28C239.623 218.88 237.959 217.088 235.415 217.088C232.855 217.088 231.079 218.832 231.079 221.6C231.079 224.384 232.919 226.144 235.415 226.144C237.591 226.144 238.999 224.896 239.447 223.296ZM243.001 221.232C243.001 219.2 244.057 218.576 245.449 218.576H245.833V217.072C244.441 217.072 243.497 217.68 243.001 218.656V217.232H241.545V226H243.001V221.232ZM246.473 217.232L249.913 226H251.609L255.049 217.232H253.497L250.777 224.656L248.041 217.232H246.473ZM256.482 226H257.938V217.232H256.482V226ZM257.234 215.808C257.762 215.808 258.194 215.376 258.194 214.816C258.194 214.256 257.762 213.824 257.234 213.824C256.674 213.824 256.242 214.256 256.242 214.816C256.242 215.376 256.674 215.808 257.234 215.808ZM259.876 221.6C259.876 224.384 261.652 226.144 264.148 226.144C266.324 226.144 267.748 224.928 268.196 223.184H266.628C266.308 224.288 265.444 224.912 264.148 224.912C262.548 224.912 261.364 223.776 261.364 221.6C261.364 219.456 262.548 218.32 264.148 218.32C265.444 218.32 266.324 218.992 266.628 220.048H268.196C267.748 218.208 266.324 217.088 264.148 217.088C261.652 217.088 259.876 218.848 259.876 221.6ZM273.866 218.32C275.37 218.32 276.65 219.264 276.634 220.976H271.098C271.258 219.264 272.442 218.32 273.866 218.32ZM277.962 223.296H276.394C276.074 224.24 275.242 224.912 273.93 224.912C272.442 224.912 271.194 223.936 271.082 222.16H278.09C278.122 221.856 278.138 221.6 278.138 221.28C278.138 218.88 276.474 217.088 273.93 217.088C271.37 217.088 269.594 218.832 269.594 221.6C269.594 224.384 271.434 226.144 273.93 226.144C276.106 226.144 277.514 224.896 277.962 223.296ZM286.364 223.616C286.3 220.48 281.212 221.616 281.212 219.536C281.212 218.832 281.852 218.32 282.924 218.32C284.092 218.32 284.764 218.96 284.828 219.84H286.284C286.188 218.128 284.908 217.088 282.972 217.088C281.02 217.088 279.756 218.192 279.756 219.536C279.756 222.8 284.94 221.664 284.94 223.616C284.94 224.336 284.3 224.912 283.148 224.912C281.916 224.912 281.164 224.272 281.084 223.424H279.58C279.676 225.024 281.116 226.144 283.164 226.144C285.1 226.144 286.364 225.056 286.364 223.616Z" fill="#96A5B8"/>
<rect x="201" y="215" width="10" height="10" rx="5" fill="#00E096"/>
<path d="M99.932 250H101.542V239.794H98.63V241.25H99.932V250ZM102.965 251.946H104.001L105.695 248.082H103.959L102.965 251.946ZM107.971 250H109.581V239.794H106.669V241.25H107.971V250ZM111.746 242.314H113.3C113.398 241.6 113.916 240.928 115.036 240.928C116.128 240.928 116.702 241.516 116.702 242.398C116.702 243.49 115.82 243.91 114.378 243.924H114V245.24H114.364C116.03 245.24 116.898 245.702 116.898 247.046C116.898 247.998 116.31 248.726 115.12 248.726C113.916 248.726 113.216 247.998 113.146 247.046H111.606C111.704 249.048 113.202 250.056 115.134 250.056C117.262 250.056 118.41 248.824 118.41 247.2C118.41 245.786 117.724 244.904 116.66 244.582V244.526C117.458 244.26 118.228 243.434 118.228 242.216C118.228 240.732 117.122 239.556 115.092 239.556C113.23 239.556 111.858 240.55 111.746 242.314ZM120.506 239.766V245.66H122.018C122.284 244.904 122.914 244.386 123.852 244.386C125.182 244.386 125.84 245.142 125.84 246.472C125.84 247.732 125.224 248.67 123.852 248.67C122.774 248.67 122.046 248.11 121.836 247.242H120.282C120.52 248.838 121.738 250 123.838 250C126.204 250 127.366 248.46 127.366 246.43C127.366 244.89 126.596 243.028 124.09 243.028C123.18 243.028 122.354 243.448 121.976 243.952V241.166H126.666V239.766H120.506Z" fill="#222B45"/>
<path d="M103.408 224.464L99.904 214.848H98.352L102.56 226H104.24L108.448 214.848H106.912L103.408 224.464ZM118.365 221.6C118.365 218.832 116.429 217.088 113.933 217.088C111.453 217.088 109.501 218.832 109.501 221.6C109.501 224.384 111.389 226.144 113.869 226.144C116.365 226.144 118.365 224.384 118.365 221.6ZM110.989 221.6C110.989 219.392 112.381 218.352 113.917 218.352C115.421 218.352 116.877 219.392 116.877 221.6C116.877 223.824 115.389 224.864 113.869 224.864C112.349 224.864 110.989 223.824 110.989 221.6ZM120.279 226H121.735V214.16H120.279V226ZM131.992 217.232H130.536V222.048C130.536 223.936 129.528 224.864 128.024 224.864C126.552 224.864 125.576 223.952 125.576 222.176V217.232H124.136V222.368C124.136 224.88 125.72 226.128 127.736 226.128C128.904 226.128 129.976 225.616 130.536 224.704V226H131.992V217.232ZM147.107 226H148.547V220.832C148.547 218.32 146.995 217.072 144.995 217.072C143.651 217.072 142.403 217.76 141.891 219.024C141.315 217.712 140.115 217.072 138.675 217.072C137.523 217.072 136.483 217.568 135.907 218.496V217.232H134.451V226H135.907V221.168C135.907 219.28 136.915 218.336 138.387 218.336C139.827 218.336 140.787 219.248 140.787 221.04V226H142.227V221.168C142.227 219.28 143.235 218.336 144.707 218.336C146.147 218.336 147.107 219.248 147.107 221.04V226ZM154.663 218.32C156.167 218.32 157.447 219.264 157.431 220.976H151.895C152.055 219.264 153.239 218.32 154.663 218.32ZM158.759 223.296H157.191C156.871 224.24 156.039 224.912 154.727 224.912C153.239 224.912 151.991 223.936 151.879 222.16H158.887C158.919 221.856 158.935 221.6 158.935 221.28C158.935 218.88 157.271 217.088 154.727 217.088C152.167 217.088 150.391 218.832 150.391 221.6C150.391 224.384 152.231 226.144 154.727 226.144C156.903 226.144 158.311 224.896 158.759 223.296Z" fill="#96A5B8"/>
<rect x="78" y="215" width="10" height="10" rx="5" fill="#0095FF"/>
<rect x="180" y="211" width="1" height="24" fill="#BDC9D3"/>
<rect x="45" y="29.1428" width="12" height="138.857" rx="2" fill="#0095FF"/>
<rect x="45" y="89.1428" width="12" height="78.8571" rx="2" fill="#00E096"/>
<rect x="149" y="29.1428" width="12" height="138.857" rx="2" fill="#0095FF"/>
<rect x="149" y="132" width="12" height="36" rx="2" fill="#00E096"/>
<rect x="253" y="72" width="12" height="96" rx="2" fill="#0095FF"/>
<rect x="253" y="132" width="12" height="36" rx="2" fill="#00E096"/>
<rect x="305" y="63.4286" width="12" height="104.571" rx="2" fill="#0095FF"/>
<rect x="305" y="106.286" width="12" height="61.7143" rx="2" fill="#00E096"/>
<rect x="201" y="42.8572" width="12" height="125.143" rx="2" fill="#0095FF"/>
<rect x="201" y="126.857" width="12" height="41.1429" rx="2" fill="#00E096"/>
<rect x="97" width="12" height="168" rx="2" fill="#0095FF"/>
<rect x="97" y="78.8571" width="12" height="89.1429" rx="2" fill="#00E096"/>
</svg>
